<svg width="86" height="113" viewBox="0 0 86 113" fill="none" xmlns="http://www.w3.org/2000/svg">
<path d="M64.6505 113C55.3463 113 47.178 107.006 44.3268 98.0826C44.0161 97.1103 43.7734 96.1086 43.6052 95.107C43.4045 93.9128 43.301 92.6892 43.301 91.4722C43.301 89.4167 43.589 87.3774 44.1586 85.4197C45.0324 82.4147 46.5825 79.5826 48.6505 77.2269C52.699 72.6035 58.5307 69.9476 64.6537 69.9476C65.5178 69.9476 66.3883 69.9998 67.2395 70.1042C68.288 70.2315 69.3366 70.4403 70.356 70.7242C79.5663 73.2952 86 81.8242 86 91.469C86 103.342 76.4207 113 64.6505 113ZM64.6505 76.4732C60.3851 76.4732 56.3204 78.3232 53.4984 81.5468C52.0583 83.188 50.9773 85.1587 50.3689 87.2502C49.9741 88.614 49.7735 90.0366 49.7735 91.4722C49.7735 92.3238 49.8446 93.1787 49.987 94.0107C50.1035 94.7089 50.2751 95.4071 50.4887 96.0825C52.4757 102.298 58.1683 106.474 64.6537 106.474C72.8576 106.474 79.5307 99.7434 79.5307 91.4722C79.5307 84.7509 75.0486 78.8061 68.6311 77.0181C67.9223 76.819 67.1909 76.6755 66.4595 76.5874C65.8608 76.5123 65.2524 76.4732 64.6505 76.4732Z" fill="#0095E9"/>
<path d="M75.5534 21.43V63.5917C75.5534 65.396 74.1035 66.8544 72.3171 66.8544C70.5307 66.8544 69.0809 65.396 69.0809 63.5917V26.3307C69.0809 24.9048 67.9353 23.7498 66.521 23.7498H56.1747C53.8705 23.7498 52 21.8639 52 19.5408V9.10969C52 7.68386 50.8544 6.52883 49.4401 6.52883H6.47249V97.0939H37.2233C38.945 97.0939 40.4531 98.4056 40.5631 100.138C40.6861 102.037 39.1909 103.619 37.3333 103.619H4.17476C1.87056 103.619 0 101.734 0 99.4105V4.20899C0 1.88589 1.87056 0 4.17476 0H54.2977C54.6893 0 55.0712 0.0554666 55.4304 0.159876C56.1424 0.254496 56.8317 0.580774 57.3786 1.13545L74.2557 18.1933C74.5955 18.5391 74.8511 18.9405 75.0162 19.3679C75.3592 19.978 75.5534 20.6795 75.5534 21.43Z" fill="#0095E9"/>
<path d="M61.7217 98.2588L56.3043 92.7969C55.8026 92.2912 55.8026 91.4722 56.3043 90.9665C56.8059 90.4608 57.6182 90.4608 58.1198 90.9665L61.7217 94.598L71.178 85.0641C71.6796 84.5584 72.4919 84.5584 72.9935 85.0641C73.4951 85.5698 73.4951 86.3888 72.9935 86.8945L61.7217 98.2588Z" fill="#FFC700"/>
<path d="M58.9903 37.8842H18.8188C17.4789 37.8842 16.3916 36.7879 16.3916 35.4371C16.3916 34.0863 17.4789 32.99 18.8188 32.99H58.9903C60.3301 32.99 61.4174 34.0863 61.4174 35.4371C61.4174 36.7879 60.3301 37.8842 58.9903 37.8842Z" fill="#0095E9"/>
<path d="M58.9903 46.9678H18.8188C17.4789 46.9678 16.3916 45.8715 16.3916 44.5207C16.3916 43.1699 17.4789 42.0736 18.8188 42.0736H58.9903C60.3301 42.0736 61.4174 43.1699 61.4174 44.5207C61.4174 45.8715 60.3301 46.9678 58.9903 46.9678Z" fill="#0095E9"/>
<path d="M58.9903 55.1476H18.8188C17.4789 55.1476 16.3916 54.0513 16.3916 52.7005C16.3916 51.3497 17.4789 50.2534 18.8188 50.2534H58.9903C60.3301 50.2534 61.4174 51.3497 61.4174 52.7005C61.4174 54.0513 60.3301 55.1476 58.9903 55.1476Z" fill="#0095E9"/>
<path d="M58.9903 63.3274H18.8188C17.4789 63.3274 16.3916 62.2311 16.3916 60.8803C16.3916 59.5295 17.4789 58.4332 18.8188 58.4332H58.9903C60.3301 58.4332 61.4174 59.5295 61.4174 60.8803C61.4174 62.2311 60.3301 63.3274 58.9903 63.3274Z" fill="#0095E9"/>
<path d="M43.8802 71.5072H18.8188C17.479 71.5072 16.3916 70.4109 16.3916 69.0601C16.3916 67.7093 17.479 66.613 18.8188 66.613H43.8802C45.22 66.613 46.3074 67.7093 46.3074 69.0601C46.3074 70.4109 45.22 71.5072 43.8802 71.5072Z" fill="#0095E9"/>
<path d="M37.7767 79.6869H18.8188C17.4789 79.6869 16.3916 78.5906 16.3916 77.2398C16.3916 75.889 17.4789 74.7927 18.8188 74.7927H37.7767C39.1165 74.7927 40.2039 75.889 40.2039 77.2398C40.2039 78.5906 39.1197 79.6869 37.7767 79.6869Z" fill="#0095E9"/>
<path d="M34.3042 87.8668H18.8155C17.4757 87.8668 16.3883 86.7705 16.3883 85.4197C16.3883 84.069 17.4757 82.9727 18.8155 82.9727H34.3042C35.644 82.9727 36.7314 84.069 36.7314 85.4197C36.7314 86.7705 35.6472 87.8668 34.3042 87.8668Z" fill="#0095E9"/>
</svg>
