<svg width="79" height="113" viewBox="0 0 79 113" fill="none" xmlns="http://www.w3.org/2000/svg">
<path d="M74.2696 48.8894C75.1031 45.7674 79 42.9432 79 39.5577C79 36.1746 75.1031 33.348 74.2696 30.226C73.4091 26.9956 75.3465 22.603 73.714 19.7739C72.0569 16.9055 67.2724 16.4007 64.9466 14.0739C62.6232 11.7447 62.1192 6.95325 59.2549 5.29373C56.4324 3.65637 52.0438 5.59904 48.8181 4.73727C45.7006 3.90259 42.8781 0 39.5 0C36.1219 0 33.2994 3.90259 30.1819 4.73727C26.9586 5.6015 22.57 3.65883 19.7451 5.29373C16.8808 6.95325 16.3768 11.7447 14.0534 14.0739C11.73 16.4007 6.94311 16.9055 5.28601 19.7739C3.65103 22.603 5.59088 26.9956 4.73036 30.226C3.89689 33.348 0 36.1722 0 39.5577C0 42.9432 3.89689 45.7674 4.73036 48.8894C5.59333 52.1198 3.65349 56.5124 5.28601 59.3415C6.94311 62.2099 11.7276 62.7147 14.0534 65.0415C16.3792 67.3707 16.8808 72.1621 19.7451 73.8217C22.57 75.459 26.9562 73.5163 30.1819 74.3781C33.2994 75.2128 36.1219 79.1154 39.5 79.1154C42.8781 79.1154 45.7006 75.2128 48.8181 74.3781C52.0438 73.5139 56.4324 75.4566 59.2549 73.8217C62.1192 72.1621 62.6232 67.3707 64.9466 65.0415C67.2724 62.7147 72.0569 62.2099 73.714 59.3415C75.3465 56.5124 73.4091 52.1198 74.2696 48.8894ZM68.2116 56.1603C66.8201 58.5683 62.8051 58.9918 60.853 60.9444C58.9033 62.8993 58.4805 66.9201 56.0759 68.3113C53.7058 69.6852 50.0253 68.0552 47.3184 68.7791C44.7024 69.4783 42.3348 72.7555 39.4975 72.7555C36.6603 72.7555 34.2927 69.4808 31.6767 68.7791C28.9698 68.0527 25.2892 69.6852 22.9191 68.3113C20.5146 66.9201 20.0942 62.8969 18.1421 60.9444C16.1924 58.9918 12.1775 58.5683 10.7859 56.1603C9.41647 53.7867 11.0416 50.1008 10.3188 47.3899C9.62053 44.7702 6.34813 42.3991 6.34813 39.5577C6.34813 36.7188 9.62053 34.3477 10.3188 31.7279C11.0416 29.017 9.41401 25.3286 10.7859 22.9575C12.1775 20.5495 16.1924 20.126 18.1421 18.1735C20.0942 16.2185 20.5146 12.1977 22.9191 10.8066C25.2892 9.43268 28.9722 11.0627 31.6767 10.3388C34.2927 9.63951 36.6603 6.36232 39.4975 6.36232C42.3323 6.36232 44.7024 9.63705 47.3184 10.3388C50.0253 11.0627 53.7058 9.43268 56.0759 10.8066C58.4805 12.1977 58.9033 16.221 60.853 18.1735C62.8051 20.126 66.8201 20.5495 68.2116 22.9575C69.5811 25.3311 67.9559 29.017 68.6788 31.7279C69.377 34.3477 72.6494 36.7188 72.6494 39.5577C72.6494 42.3991 69.3795 44.7702 68.6788 47.3899C67.9559 50.1008 69.5811 53.7867 68.2116 56.1603Z" fill="#0095E9"/>
<path d="M42.411 82.7052C42.7061 82.491 43.0921 82.8062 42.9445 83.1386L37.1004 96.3877L30.2655 111.88C28.1978 114.352 26.5309 111.961 26.5309 111.961L18.2896 102.053H4.23868C1.77023 101.063 2.46848 99.0764 2.46848 99.0764L13.338 75.033C13.4634 74.7523 13.8617 74.7523 13.9871 75.033C14.8574 76.9708 15.7228 78.9208 17.348 79.8614C20.1705 81.4963 24.5591 79.5536 27.7848 80.4179C28.7879 80.6862 29.7639 81.2747 30.7351 81.9469C32.7782 83.3626 34.8139 85.1551 37.1029 85.1551C38.996 85.1576 40.7146 83.929 42.411 82.7052Z" fill="#0095E9"/>
<path d="M76.3324 100.628H62.2815L54.0402 110.536C54.0402 110.536 52.3757 112.924 50.3056 110.454L43.8198 95.75C43.5985 95.2477 43.5985 94.6765 43.8198 94.1742L49.8409 80.5238C50.812 79.8516 51.7857 79.2631 52.7912 78.9947C56.0169 78.1305 60.4031 80.0732 63.228 78.4383C64.7966 77.5297 65.6571 75.6806 66.4955 73.8143C66.6578 73.4548 67.1667 73.4548 67.329 73.8143L78.1051 97.6533C78.1026 97.6533 78.7984 99.6378 76.3324 100.628Z" fill="#0095E9"/>
<path d="M33.3387 54.3013L21.9431 42.889C20.8884 41.8327 20.8884 40.1215 21.9431 39.0652C22.9978 38.0089 24.7066 38.0089 25.7613 39.0652L33.3387 46.6537L53.2363 26.7271C54.291 25.6709 55.9997 25.6709 57.0545 26.7271C58.1092 27.7834 58.1092 29.4947 57.0545 30.5509L33.3387 54.3013Z" fill="#FFC700"/>
</svg>
