<svg width="97" height="113" viewBox="0 0 97 113" fill="none" xmlns="http://www.w3.org/2000/svg">
<path d="M53.4574 16.0413V12.2994C53.4574 11.079 54.4431 10.0926 55.6559 10.0926H60.7609C61.9736 10.0926 62.9594 9.10309 62.9594 7.88574V2.20981C62.9594 0.989466 61.9736 0 60.7609 0H36.0963C34.8835 0 33.8978 0.989466 33.8978 2.20981V7.88574C33.8978 9.10309 34.8835 10.0926 36.0963 10.0926H41.2042C42.42 10.0926 43.4028 11.079 43.4028 12.2994V16.0413C19.0518 18.572 0 39.2908 0 64.3902C0 91.1958 21.7253 113 48.4301 113C75.1319 113 96.8571 91.1958 96.8571 64.3902C96.8571 39.2908 77.8053 18.572 53.4574 16.0413ZM48.4301 105.504C25.8445 105.504 7.46778 87.061 7.46778 64.3902C7.46778 41.7195 25.8445 23.2764 48.4301 23.2764C71.0126 23.2764 89.3894 41.7195 89.3894 64.3902C89.3894 87.061 71.0126 105.504 48.4301 105.504Z" fill="#0095E9"/>
<path d="M64.9457 61.8567L61.5553 66.1924L58.8878 69.6045L56.1815 72.9867C55.2615 74.1021 54.3534 75.2265 53.4274 76.3359C52.4954 77.4393 51.5814 78.5577 50.6315 79.6521C48.7556 81.8559 46.8319 84.0237 44.8813 86.1706C42.9218 88.3114 40.9294 90.4283 38.8294 92.4672C40.1378 89.8466 41.5536 87.304 43.0024 84.7853C44.4601 82.2727 45.9447 79.784 47.4771 77.3284C48.2299 76.09 49.0214 74.8787 49.7891 73.6553C50.5688 72.435 51.3633 71.2296 52.1519 70.0153L53.8516 67.4637C52.0623 67.4937 50.273 67.4907 48.4838 67.5056C46.6825 67.5146 44.8843 67.4907 43.086 67.4817C41.2848 67.4727 39.4866 67.4217 37.6883 67.3947L31.9113 67.3048L35.3733 62.8072C37.2313 60.3905 39.1102 57.9888 41.0219 55.6141C41.9718 54.4207 42.9486 53.2483 43.9135 52.064C44.8843 50.8886 45.87 49.7222 46.8528 48.5529C48.8362 46.2291 50.8436 43.9234 52.9017 41.6566C54.9658 39.3928 57.0657 37.15 59.2762 34.9972C57.8932 37.7617 56.3906 40.4393 54.8582 43.0958C53.3169 45.7464 51.7277 48.361 50.1117 50.9576C49.2962 52.2469 48.4808 53.5392 47.6533 54.8225C46.8169 56.0998 45.9985 57.3861 45.1471 58.6544C44.5079 59.6199 43.8627 60.5824 43.2115 61.5419C44.9679 61.5359 46.7243 61.5089 48.4838 61.5179C50.282 61.5329 52.0802 61.5329 53.8785 61.5629C55.6797 61.6018 57.4779 61.6168 59.2762 61.6738L64.9457 61.8567Z" fill="#FFC700"/>
</svg>
