<svg width="111" height="113" viewBox="0 0 111 113" fill="none" xmlns="http://www.w3.org/2000/svg">
<path d="M68.3759 84.0485V111.563C68.3759 112.711 67.0938 113.393 66.1381 112.755L55.4081 105.577L44.6679 112.585C43.7123 113.207 42.4437 112.524 42.4437 111.383V84.0519C44.6237 89.2363 49.6911 92.6383 55.4115 92.6383C61.2339 92.6383 66.2401 89.0903 68.3759 84.0485Z" fill="#0095E9"/>
<path d="M84.2938 49.9435H26.2711C23.7055 49.9435 21.6233 48.4224 21.6233 46.5483C21.6233 44.6741 23.7055 43.1531 26.2711 43.1531H84.2938C86.8594 43.1531 88.9416 44.6741 88.9416 46.5483C88.9416 48.4224 86.8594 49.9435 84.2938 49.9435Z" fill="#0095E9"/>
<path d="M85.9624 36.0537H25.0242C23.1469 36.0537 21.6233 34.5327 21.6233 32.6585C21.6233 30.7844 23.1469 29.2633 25.0242 29.2633H85.9624C87.8398 29.2633 89.3634 30.7844 89.3634 32.6585C89.3634 34.5327 87.8398 36.0537 85.9624 36.0537Z" fill="#0095E9"/>
<path d="M85.9624 22.3948H25.0242C23.1469 22.3948 21.6233 20.8737 21.6233 18.9996C21.6233 17.1254 23.1469 15.6044 25.0242 15.6044H85.9624C87.8398 15.6044 89.3634 17.1254 89.3634 18.9996C89.3634 20.8737 87.8398 22.3948 85.9624 22.3948Z" fill="#0095E9"/>
<path d="M107.599 98.3321H81.2009C79.3236 98.3321 77.8 96.811 77.8 94.9368C77.8 93.0627 79.3236 91.5416 81.2009 91.5416H104.198V6.79042H6.80189V91.5416H29.4522C31.3295 91.5416 32.8531 93.0627 32.8531 94.9368C32.8531 96.811 31.3295 98.3321 29.4522 98.3321H3.40094C1.52362 98.3321 0 96.811 0 94.9368V3.39521C0 1.52105 1.52362 0 3.40094 0H107.599C109.476 0 111 1.52105 111 3.39521V94.9368C111 96.811 109.476 98.3321 107.599 98.3321Z" fill="#0095E9"/>
<path d="M55.4081 85.8581C49.7592 85.8581 44.7972 82.2524 43.0661 76.8879C42.879 76.304 42.7294 75.703 42.6273 75.0987C42.5049 74.3823 42.4437 73.6455 42.4437 72.9121C42.4437 71.6763 42.6205 70.4506 42.964 69.2725C43.4946 67.4662 44.4367 65.7618 45.6916 64.346C48.1505 61.5654 51.6909 59.9696 55.4115 59.9696C55.9352 59.9696 56.4658 60.0002 56.9828 60.0647C57.6187 60.1428 58.2581 60.2684 58.8771 60.4381C64.4716 61.983 68.3793 67.1131 68.3793 72.9121C68.3759 80.0523 62.5569 85.8581 55.4081 85.8581ZM55.4081 63.8945C52.8166 63.8945 50.3475 65.0081 48.6334 66.9468C47.7594 67.9348 47.103 69.1197 46.7323 70.3759C46.4908 71.1976 46.3684 72.0498 46.3684 72.9155C46.3684 73.4282 46.4126 73.9409 46.4976 74.4434C46.569 74.8644 46.6711 75.282 46.8037 75.6894C48.0111 79.4276 51.4664 81.94 55.4047 81.94C60.3871 81.94 64.441 77.8929 64.441 72.9189C64.441 68.8786 61.7203 65.3035 57.8228 64.2272C57.3909 64.1084 56.9487 64.0201 56.5066 63.9658C56.1427 63.9182 55.7754 63.8945 55.4081 63.8945Z" fill="#FFC700"/>
</svg>
