<svg width="72" height="113" viewBox="0 0 72 113" fill="none" xmlns="http://www.w3.org/2000/svg">
<path d="M71.4433 78.3161L37.3304 112.449C36.5956 113.184 35.4043 113.184 34.6695 112.449L0.556722 78.3161C-0.631771 77.1297 0.208811 75.0994 1.88718 75.0994H12.514C13.5522 75.0994 14.3956 74.2556 14.3956 73.214V61.0437C19.8259 66.7557 27.4968 69.2928 36 69.2928C44.5031 69.2928 52.1741 66.7557 57.6044 61.0437V73.214C57.6044 74.2556 58.4478 75.0994 59.486 75.0994H70.1128C71.7912 75.0994 72.6318 77.1297 71.4433 78.3161Z" fill="#0095E9"/>
<path d="M41.82 33.673C41.2856 33.1328 40.6287 32.6482 39.8521 32.2193C39.2315 31.8767 38.4744 31.5175 37.5837 31.1415V25.204C37.8704 25.3516 38.1264 25.5576 38.3463 25.825C38.8446 26.4266 39.095 27.3317 39.095 28.5459H43.4705C43.4705 26.5742 42.9667 24.9728 41.9563 23.7335C40.946 22.497 39.5488 21.7534 37.7618 21.4999C37.7062 21.4888 37.6477 21.4805 37.5837 21.4749V18.0717H35.2011V21.4721C33.4559 21.6698 32.0559 22.2992 30.9927 23.3631C29.9044 24.4548 29.3588 25.8529 29.3588 27.56C29.3588 28.5515 29.5175 29.4037 29.8348 30.1194C30.1521 30.8379 30.5974 31.4618 31.168 31.9909C31.7386 32.5228 32.4233 32.9907 33.2194 33.4001C33.8011 33.6981 34.4607 33.9989 35.2011 34.2969V40.4572C34.6138 40.3152 34.1295 40.0311 33.7566 39.6134C33.186 38.97 32.9021 38.051 32.9021 36.8479H28.5266C28.5266 38.9171 29.0944 40.577 30.23 41.8246C31.3656 43.0723 32.9661 43.8075 35.0369 44.0303C35.0369 44.0303 35.0981 44.0359 35.2011 44.0415V47.169H37.5837V43.9969C39.3957 43.7908 40.8235 43.1642 41.8645 42.1198C42.9361 41.0504 43.4705 39.6551 43.4705 37.9396C43.4705 37.0206 43.3286 36.2129 43.0474 35.5223C42.7635 34.8316 42.3544 34.2133 41.82 33.673ZM34.3995 29.4232C33.9569 28.9581 33.7343 28.3426 33.7343 27.5767C33.7343 26.7468 33.9625 26.0979 34.4162 25.6273C34.6333 25.4017 34.8949 25.2318 35.2011 25.1176V30.0387C34.8588 29.8298 34.5943 29.6237 34.3995 29.4232ZM38.3213 39.8696C38.107 40.0645 37.862 40.2205 37.5837 40.3291V35.3496C37.9233 35.5585 38.196 35.7729 38.4048 35.9929C38.864 36.4803 39.095 37.1403 39.095 37.9675C39.095 38.7667 38.8362 39.4017 38.3213 39.8696Z" fill="#FFC700"/>
<path d="M35.9999 65.2406C18.025 65.2406 3.39841 50.6084 3.39841 32.6203C3.39841 14.6322 18.0222 0 35.9999 0C53.9777 0 68.6015 14.6322 68.6015 32.6203C68.6015 50.6084 53.9749 65.2406 35.9999 65.2406ZM35.9999 5.56993C21.0922 5.56993 8.96513 17.704 8.96513 32.6203C8.96513 47.5366 21.0922 59.6707 35.9999 59.6707C50.9076 59.6707 63.0348 47.5366 63.0348 32.6203C63.0348 17.704 50.9048 5.56993 35.9999 5.56993Z" fill="#0095E9"/>
</svg>
