<svg width="114" height="113" viewBox="0 0 114 113" fill="none" xmlns="http://www.w3.org/2000/svg">
<path d="M56.9926 113C54.8882 113 52.9052 112.081 51.555 110.476L44.6273 102.237L34.4767 105.939C32.4973 106.661 30.3156 106.475 28.4908 105.428C26.666 104.382 25.4151 102.602 25.0582 100.541L23.226 89.9755L12.5677 88.1592C10.4891 87.8054 8.69367 86.5654 7.63777 84.7564C6.58188 82.9474 6.39424 80.7846 7.1227 78.8224L10.857 68.7599L2.54592 61.8887C0.927128 60.5538 0 58.588 0 56.5018C0 54.4156 0.927128 52.4498 2.54592 51.1113L10.857 44.2401L7.1227 34.1776C6.39424 32.2154 6.58188 30.0526 7.63777 28.2436C8.69367 26.4346 10.4891 25.1946 12.5677 24.8408L23.226 23.0245L25.0582 12.4587C25.4151 10.398 26.666 8.61825 28.4945 7.57151C30.3193 6.52478 32.501 6.33876 34.4803 7.0609L44.6309 10.7628L51.5623 2.52383C52.9125 0.919078 54.8919 0 57 0C59.1044 0 61.0875 0.919078 62.4377 2.52383L69.3691 10.7628L79.5197 7.0609C81.499 6.33876 83.6807 6.52478 85.5055 7.57151C87.3303 8.61825 88.5812 10.398 88.9418 12.4587L90.774 23.0245L101.432 24.8408C103.511 25.1946 105.306 26.4346 106.362 28.2436C107.418 30.0526 107.606 32.2154 106.877 34.1776L103.143 44.2401L111.454 51.1113C113.073 52.4498 114 54.412 114 56.5018C114 58.588 113.073 60.5538 111.454 61.8887L103.143 68.7599L106.877 78.8224C107.606 80.7846 107.418 82.9474 106.362 84.7564C105.306 86.5654 103.511 87.8054 101.432 88.1592L90.774 89.9755L88.9418 100.541C88.5849 102.602 87.334 104.382 85.5092 105.428C83.6844 106.475 81.5027 106.661 79.5233 105.939L69.3727 102.237L62.4414 110.476C61.0801 112.081 59.0971 113 56.9926 113ZM44.7045 94.8955C46.7648 94.8955 48.7809 95.789 50.1496 97.4157L56.9926 105.549L63.8321 97.4157C65.7452 95.1435 68.9129 94.301 71.7126 95.3259L81.7345 98.9803L83.5446 88.5494C84.0523 85.628 86.3738 83.3267 89.3207 82.8234L99.8429 81.029L96.1565 71.0941C95.1263 68.3186 95.9725 65.1784 98.2646 63.2819L106.469 56.4982L98.2646 49.7181C95.9725 47.8216 95.1226 44.685 96.1565 41.9059L99.8429 31.971L89.3207 30.1766C86.3738 29.6733 84.0523 27.3719 83.5446 24.4506L81.7345 14.0197L71.7126 17.6742C68.9092 18.6954 65.7452 17.8565 63.8321 15.5843L56.989 7.45115L50.1496 15.5843C48.2364 17.8565 45.0724 18.699 42.269 17.6778L32.2471 14.0233L30.437 24.4542C29.9293 27.3756 27.6078 29.677 24.6609 30.1803L14.1387 31.9747L17.8251 41.9095C18.8553 44.685 18.0091 47.8252 15.717 49.7218L7.51268 56.5018L15.717 63.2855C18.0091 65.1821 18.859 68.3186 17.8251 71.0978L14.1387 81.0326L24.6609 82.827C27.6078 83.3303 29.9293 85.6317 30.437 88.5531L32.2471 98.984L42.269 95.3295C43.0673 95.0341 43.8914 94.8955 44.7045 94.8955Z" fill="#0095E9"/>
<path d="M44.2078 57.6758C41.3602 57.6758 39.0645 56.7822 37.3279 54.9915C35.5877 53.2007 34.7195 50.7936 34.7195 47.7664C34.7195 44.4657 35.6466 41.8434 37.4972 39.9068C39.3478 37.9702 41.8201 37 44.9105 37C47.8685 37 50.1827 37.8753 51.8493 39.6296C53.5159 41.3839 54.3474 43.8457 54.3474 47.0188C54.3474 50.283 53.4276 52.8761 51.5844 54.7945C49.7338 56.7202 47.2762 57.6758 44.2078 57.6758ZM70.5611 41.9346L48.207 75.959C47.6809 76.7614 46.7795 77.2464 45.8119 77.2464C43.5456 77.2464 42.1807 74.7554 43.4168 72.8698L65.7231 38.8455C66.2492 38.0431 67.1506 37.558 68.1182 37.558H68.166C70.4323 37.558 71.7973 40.0527 70.5611 41.9346ZM44.7376 41.8763C42.0188 41.8763 40.6612 43.7509 40.6612 47.4929C40.6612 51.0343 41.9562 52.8068 44.5426 52.8068C47.1842 52.8068 48.5087 50.9613 48.5087 47.2704C48.505 43.6743 47.2504 41.8763 44.7376 41.8763ZM69.1373 77.7971C66.2897 77.7971 63.9939 76.9036 62.2574 75.1128C60.5172 73.3221 59.6489 70.915 59.6489 67.8915C59.6489 64.5908 60.5761 61.9685 62.4266 60.0318C64.2772 58.0952 66.7496 57.125 69.84 57.125C72.8164 57.125 75.1342 57.9931 76.7898 59.7255C78.4454 61.4615 79.2732 63.9124 79.2732 67.0854C79.2732 70.3496 78.3534 72.9537 76.5102 74.8904C74.6633 76.827 72.2093 77.7971 69.1373 77.7971ZM69.5825 61.994C66.882 61.994 65.5355 63.865 65.5355 67.6106C65.5355 71.152 66.8489 72.9245 69.4721 72.9245C72.1137 72.9245 73.4381 71.0791 73.4381 67.3882C73.4381 65.674 73.0849 64.3428 72.3786 63.4018C71.6685 62.4645 70.7377 61.994 69.5825 61.994Z" fill="#FFC700"/>
</svg>
