<svg width="158" height="113" viewBox="0 0 158 113" fill="none" xmlns="http://www.w3.org/2000/svg">
<path d="M140.394 113C140.243 113 140.095 113 139.943 112.992L16.3796 109.705C7.10476 109.457 -0.237662 101.7 0.00588803 92.4146L0.788438 62.98C0.908217 58.4814 2.76878 54.2988 6.03075 51.1997C9.29272 48.1047 13.5648 46.4612 18.0565 46.5812L141.62 49.8682C146.112 49.9881 150.288 51.8515 153.382 55.1185C156.477 58.3854 158.114 62.6601 157.994 67.1626L157.211 96.5972C156.964 105.734 149.466 113 140.394 113ZM140.151 105.003C140.231 105.003 140.311 105.007 140.39 105.007C145.158 105.007 149.098 101.188 149.226 96.3893L150.009 66.9547C150.072 64.5915 149.21 62.3442 147.585 60.6287C145.96 58.9133 143.764 57.9336 141.404 57.8696L17.8409 54.5827C15.4853 54.5307 13.2374 55.3824 11.5246 57.0099C9.81176 58.6374 8.83356 60.8366 8.76968 63.1999L7.98713 92.6345C7.85937 97.5129 11.7162 101.592 16.5872 101.72L140.151 105.003Z" fill="#0095E9"/>
<path d="M129.495 56.6939L82.2619 9.389C81.3675 8.49328 80.1777 7.99745 78.9081 7.99745C77.6384 7.99745 76.4526 8.49328 75.5543 9.389L31.324 53.6909L25.6785 48.0367L69.9087 3.73482C72.3123 1.32759 75.5064 0 78.9081 0C82.3098 0 85.5039 1.32759 87.9074 3.73482L135.14 51.0397L129.495 56.6939Z" fill="#0095E9"/>
<path d="M51.2312 88.056L46.7315 87.96L45.5138 83.8493L38.9938 83.7133L37.6164 87.768L33.1447 87.6761L40.1996 69.4579L45.0946 69.5619L51.2312 88.056ZM44.6314 80.6583L42.7908 74.4483C42.6551 73.9844 42.5632 73.4326 42.5193 72.7888L42.4155 72.7848C42.3636 73.3207 42.2438 73.8525 42.0641 74.3763L39.9401 80.5543L44.6314 80.6583Z" fill="#FFC700"/>
<path d="M68.7508 88.4239L63.5364 88.316L58.362 80.2305C58.2622 80.0746 58.1065 79.7347 57.8988 79.2109H57.8349L57.6473 88.196L53.5189 88.108L53.9022 69.7499L58.0306 69.8379L57.8509 78.5151H57.9148C58.0226 78.2792 58.1983 77.9393 58.4458 77.5034L63.6682 69.9538L68.5871 70.0578L62.0112 78.679L68.7508 88.4239Z" fill="#FFC700"/>
<path d="M88.8816 93.8546L85.2523 93.7786L85.3561 88.7722L70.5035 88.4603L70.8868 70.1022L75.0152 70.1902L74.7078 85.0134L82.2977 85.1734L82.6052 70.3501L86.7455 70.4381L86.4381 85.2614L89.0572 85.3173L88.8816 93.8546Z" fill="#FFC700"/>
<path d="M108.489 89.2562L104.592 89.1763L104.804 79.0875C104.828 77.9279 104.892 76.9362 104.996 76.1204H104.92C104.732 76.4683 104.417 76.9681 103.97 77.6239L96.164 89.0003L92.0117 88.9124L92.395 70.5542L96.2918 70.6342L96.0802 80.7869C96.0522 82.0425 96.0043 82.8823 95.9245 83.3061H95.9764C96.0203 83.2062 96.3477 82.7103 96.9546 81.8266L104.461 70.8021L108.885 70.8941L108.489 89.2562Z" fill="#FFC700"/>
<path d="M125.258 89.6085L121.118 89.5205L121.266 82.3908L120.168 82.3668C119.146 82.3468 118.295 83.1026 117.612 84.6461L115.516 89.4046L110.749 89.3046L113.432 83.8783C114.191 82.3508 115.161 81.4111 116.343 81.0593V81.0073C113.656 80.3115 112.338 78.716 112.39 76.2248C112.426 74.5773 113.049 73.3057 114.259 72.402C115.472 71.5023 117.157 71.0744 119.325 71.1184L125.638 71.2504L125.258 89.6085ZM121.33 79.2918L121.433 74.3134L119.709 74.2774C117.776 74.2374 116.79 75.0252 116.758 76.6367C116.742 77.4044 116.99 78.0282 117.505 78.5081C118.02 78.9879 118.718 79.2398 119.605 79.2558L121.33 79.2918Z" fill="#FFC700"/>
</svg>
