<svg width="69" height="113" viewBox="0 0 69 113" fill="none" xmlns="http://www.w3.org/2000/svg">
<path d="M56.305 8.32324C52.667 5.0437 48.2585 2.65196 43.567 1.30371C31.5106 -2.16465 18.5752 1.36004 10.081 11.0098C4.99115 16.7904 2.04456 24.4493 1.9853 32.1744C1.91616 40.8039 5.29403 49.0657 9.11968 56.7875C16.0994 70.8795 24.7614 84.1004 34.4869 96.4367C34.6317 96.2545 34.7766 96.0723 34.9215 95.8901C44.4263 83.8652 52.8019 70.9193 59.6631 57.1949C63.5776 49.3671 67.0609 40.9927 67.0115 32.2307C66.9654 23.2269 62.9653 14.3291 56.305 8.32324ZM34.5 47.0648C25.5483 47.0648 18.2921 39.7637 18.2921 30.7566C18.2921 21.7495 25.5483 14.4484 34.5 14.4484C43.4518 14.4484 50.708 21.7495 50.708 30.7566C50.708 39.7637 43.4518 47.0648 34.5 47.0648Z" fill="#0095E9"/>
<path d="M34.5 113C25.7326 113 17.4426 111.529 11.151 108.856C3.96063 105.802 0 101.389 0 96.4301C0 92.0176 3.21327 87.953 9.04394 84.9849C10.667 84.16 12.6457 84.8126 13.4688 86.4457C14.2886 88.0789 13.64 90.0698 12.0169 90.898C8.61595 92.6272 6.5846 94.6976 6.5846 96.4301C6.5846 100.485 17.4591 106.371 34.5 106.371C51.541 106.371 62.4154 100.481 62.4154 96.4301C62.4154 94.5485 60.1042 92.3456 56.2358 90.5303C54.5863 89.7584 53.8719 87.7874 54.639 86.1277C55.4061 84.4681 57.365 83.7492 59.0145 84.5211C65.4542 87.5389 69 91.7659 69 96.4268C69 101.386 65.0394 105.798 57.8457 108.853C51.5574 111.529 43.2641 113 34.5 113Z" fill="#FFC700"/>
</svg>
