<svg width="64" height="83" viewBox="0 0 64 83" fill="none" xmlns="http://www.w3.org/2000/svg">
<path d="M48.112 83C41.1879 83 35.1092 78.5974 32.9874 72.0426C32.7562 71.3284 32.5756 70.5927 32.4504 69.8569C32.3011 68.9797 32.224 68.081 32.224 67.1871C32.224 65.6772 32.4383 64.1793 32.8622 62.7413C33.5125 60.534 34.6661 58.4538 36.205 56.7234C39.2179 53.3274 43.5577 51.3765 48.1144 51.3765C48.7574 51.3765 49.4053 51.4149 50.0387 51.4916C50.819 51.585 51.5993 51.7384 52.358 51.9469C59.2122 53.8355 64 60.1002 64 67.1847C64.0024 75.906 56.8736 83 48.112 83ZM48.112 56.1698C44.9378 56.1698 41.9128 57.5287 39.8127 59.8965C38.741 61.102 37.9366 62.5496 37.4839 64.0858C37.19 65.0876 37.0407 66.1326 37.0407 67.1871C37.0407 67.8126 37.0937 68.4405 37.1997 69.0517C37.2864 69.5645 37.414 70.0774 37.573 70.5735C39.0517 75.1391 43.288 78.2068 48.1144 78.2068C54.2196 78.2068 59.1857 73.2625 59.1857 67.1871C59.1857 62.25 55.8501 57.8834 51.0743 56.57C50.5468 56.4238 50.0026 56.3184 49.4583 56.2537C49.0127 56.1985 48.5624 56.1698 48.112 56.1698Z" fill="#0095E9"/>
<path d="M56.2282 15.741V46.7103C56.2282 48.0356 55.1493 49.1069 53.8198 49.1069C52.4904 49.1069 51.4115 48.0356 51.4115 46.7103V19.3384C51.4115 18.2911 50.5589 17.4427 49.5064 17.4427H41.8069C40.0921 17.4427 38.7001 16.0574 38.7001 14.351V6.68899C38.7001 5.64166 37.8475 4.79325 36.7951 4.79325H4.81915V71.3164H27.7035C28.9847 71.3164 30.107 72.2799 30.1889 73.5525C30.2804 74.9473 29.1678 76.1097 27.7854 76.1097H3.1068C1.39204 76.1097 0 74.7244 0 73.018V3.09165C0 1.38525 1.39204 0 3.1068 0H40.4076C40.699 0 40.9832 0.0407426 41.2505 0.117435C41.7804 0.186937 42.2934 0.426599 42.7004 0.834026L55.26 13.3636C55.5129 13.6176 55.7032 13.9124 55.826 14.2264C56.0837 14.6745 56.2282 15.1898 56.2282 15.741Z" fill="#0095E9"/>
<path d="M45.9324 72.1744L41.9008 68.1625C41.5275 67.791 41.5275 67.1894 41.9008 66.818C42.2741 66.4465 42.8786 66.4465 43.2519 66.818L45.9324 69.4854L52.9696 62.4825C53.3429 62.111 53.9474 62.111 54.3207 62.4825C54.694 62.8539 54.694 63.4555 54.3207 63.827L45.9324 72.1744Z" fill="#0095E9"/>
<path d="M43.9021 27.8249H14.0071C13.01 27.8249 12.2008 27.0196 12.2008 26.0274C12.2008 25.0352 13.01 24.2299 14.0071 24.2299H43.9021C44.8992 24.2299 45.7084 25.0352 45.7084 26.0274C45.7084 27.0196 44.8992 27.8249 43.9021 27.8249Z" fill="#0095E9"/>
<path d="M43.9021 34.4994H14.0071C13.01 34.4994 12.2008 33.6942 12.2008 32.702C12.2008 31.7098 13.01 30.9045 14.0071 30.9045H43.9021C44.8992 30.9045 45.7084 31.7098 45.7084 32.702C45.7084 33.6942 44.8992 34.4994 43.9021 34.4994Z" fill="#0095E9"/>
<path d="M43.9021 40.5078H14.0071C13.01 40.5078 12.2008 39.7025 12.2008 38.7103C12.2008 37.7181 13.01 36.9128 14.0071 36.9128H43.9021C44.8992 36.9128 45.7084 37.7181 45.7084 38.7103C45.7084 39.7025 44.8992 40.5078 43.9021 40.5078Z" fill="#0095E9"/>
<path d="M43.9021 46.5161H14.0071C13.01 46.5161 12.2008 45.7109 12.2008 44.7187C12.2008 43.7265 13.01 42.9212 14.0071 42.9212H43.9021C44.8992 42.9212 45.7084 43.7265 45.7084 44.7187C45.7084 45.7109 44.8992 46.5161 43.9021 46.5161Z" fill="#0095E9"/>
<path d="M32.6551 52.5244H14.0047C13.0076 52.5244 12.1984 51.7192 12.1984 50.727C12.1984 49.7348 13.0076 48.9295 14.0047 48.9295H32.6551C33.6521 48.9295 34.4614 49.7348 34.4614 50.727C34.4614 51.7192 33.6521 52.5244 32.6551 52.5244Z" fill="#0095E9"/>
<path d="M28.1153 58.5328H14.0071C13.01 58.5328 12.2008 57.7275 12.2008 56.7353C12.2008 55.7431 13.01 54.9379 14.0071 54.9379H28.1153C29.1124 54.9379 29.9216 55.7431 29.9216 56.7353C29.9216 57.7275 29.1124 58.5328 28.1153 58.5328Z" fill="#0095E9"/>
<path d="M25.5311 64.5412H14.0047C13.0076 64.5412 12.1984 63.7359 12.1984 62.7437C12.1984 61.7515 13.0076 60.9462 14.0047 60.9462H25.5311C26.5282 60.9462 27.3374 61.7515 27.3374 62.7437C27.3374 63.7359 26.5282 64.5412 25.5311 64.5412Z" fill="#0095E9"/>
</svg>
