<svg width="15" height="30" viewBox="0 0 15 30" fill="none" xmlns="http://www.w3.org/2000/svg">
<path d="M14.9934 0.660174C14.9934 0.435281 15.009 0.217121 14.7063 0.196921C12.7422 0.0689873 10.769 -0.235359 8.82439 0.331587C6.39523 1.03859 4.82602 3.01953 4.53504 5.6388C4.36617 7.15111 4.46749 8.66476 4.43502 10.1771C4.41683 11.0511 4.54673 10.9406 3.6647 10.946C2.60211 10.9527 1.53951 10.9622 0.476919 10.9393C0.101504 10.9312 -0.00501673 11.0564 0.000179325 11.4429C0.0209636 12.8987 0.0183668 14.3544 0.00147961 15.8102C-0.00241744 16.1711 0.102804 16.2855 0.453538 16.2802C1.62915 16.2613 2.80605 16.2829 3.98296 16.2667C4.31551 16.2613 4.44411 16.3381 4.44281 16.7178C4.42982 20.9666 4.43112 25.2166 4.44151 29.4654C4.44281 29.7334 4.44151 30 4.44151 30H9.7272C9.7272 30 9.7272 29.7872 9.7298 29.3307C9.75188 25.1601 9.74929 20.9895 9.7324 16.8188C9.7311 16.3744 9.84801 16.2505 10.2728 16.2613C11.4107 16.2909 12.55 16.2573 13.6879 16.2802C14.0568 16.2869 14.1737 16.1522 14.2153 15.7846C14.3764 14.3396 14.5504 12.8973 14.757 11.4591C14.8206 11.0133 14.6868 10.9312 14.2945 10.9379C12.9475 10.9595 11.6004 10.9325 10.2533 10.9541C9.8623 10.9608 9.7233 10.8491 9.73499 10.4289C9.76357 9.36772 9.7324 8.30385 9.75968 7.24268C9.79735 5.74653 10.4482 5.05839 11.9018 4.99105C12.7916 4.95065 13.6853 4.96547 14.5764 4.98163C14.8947 4.98701 15.0038 4.89544 14.9999 4.55339C14.9817 3.25789 14.9908 1.95971 14.9934 0.660174Z" fill="white"/>
</svg>
