<svg width="40" height="40" viewBox="0 0 40 40" fill="none" xmlns="http://www.w3.org/2000/svg">
<path d="M24.2713 8.00794H10.1267V38.501H1.52299V1.02979H24.2713V8.00794Z" fill="#FFC700"/>
<path d="M25 0H21.0275V9.01344H25V0Z" fill="#E2A700"/>
<path d="M11.5182 40V36.103H2.86102e-06V40H11.5182Z" fill="#E2A700"/>
<path d="M15.7287 31.9921L29.8733 31.9921L29.8733 1.499L38.477 1.499L38.477 38.9702L15.7287 38.9702L15.7287 31.9921Z" fill="#0095E9"/>
<path d="M15 40L18.9725 40L18.9725 30.9866L15 30.9866L15 40Z" fill="#028AC6"/>
<path d="M28.4818 2.40803e-05L28.4818 3.89697L40 3.89697L40 2.50872e-05L28.4818 2.40803e-05Z" fill="#028AC6"/>
</svg>
