<svg width="30" height="30" viewBox="0 0 30 30" fill="none" xmlns="http://www.w3.org/2000/svg">
<path d="M18.0635 29.9995C17.6163 29.9995 17.1717 29.9956 16.731 29.9917H16.7027C15.9088 29.984 15.097 29.9879 14.3122 29.9917C12.6292 29.9995 10.8895 30.0085 9.15885 29.9079C5.84184 29.7146 3.43333 28.5155 1.79545 26.2413C0.828951 24.8991 0.283848 23.2605 0.131786 21.2337C0.00678584 19.5667 -0.00223478 17.8932 0.000342541 16.4557V16.4261C0.0235384 15.4888 0.0209611 14.527 0.0183838 13.5961C0.0170951 12.1573 0.0132291 10.6695 0.0995693 9.18811C0.296734 5.81022 1.51967 3.37479 3.83926 1.74387C5.26838 0.739529 6.96039 0.218664 9.164 0.106498C11.9282 -0.0340323 14.7207 -0.00437916 17.4204 0.0226955C18.057 0.0291418 18.6936 0.0355882 19.3302 0.0407452C20.6344 0.0497701 22.03 0.111655 23.3998 0.494568C26.8753 1.46668 29.0532 3.88921 29.6975 7.49787C30.0042 9.21131 29.9952 10.9131 29.9875 12.5583C29.9862 12.762 29.9849 12.967 29.9849 13.1707C29.9836 13.8333 29.9875 14.4973 29.9926 15.16C30.0042 17.0114 30.0171 18.9272 29.9037 20.8302C29.7838 22.8131 29.3277 25.6895 26.7581 27.7961C26.7349 27.8155 26.7117 27.8361 26.6872 27.8554L26.5377 27.9715C25.3083 28.9784 23.7697 29.5818 21.8354 29.8151C20.5686 29.9672 19.3045 29.9995 18.0635 29.9995ZM15.7323 27.408C16.0635 27.408 16.396 27.4093 16.7271 27.4119H16.7555C18.4088 27.4274 19.9694 27.4416 21.5261 27.2533C22.99 27.0767 24.0699 26.6654 24.923 25.9589L25.1137 25.8081C26.5003 24.6761 27.1846 23.0929 27.3302 20.6729C27.4385 18.8563 27.4269 16.9843 27.4153 15.1742C27.4114 14.5038 27.4063 13.8333 27.4076 13.1629C27.4076 12.9566 27.4088 12.7491 27.4101 12.5428C27.4179 10.9428 27.4256 9.43178 27.1614 7.94912C26.6898 5.3087 25.2323 3.68164 22.7065 2.97512C21.6885 2.69019 20.6125 2.62573 19.3122 2.6167C18.673 2.61284 18.0338 2.6051 17.3934 2.59865C14.7323 2.57158 11.9797 2.54322 9.29416 2.67859C7.59699 2.76626 6.33411 3.13886 5.31993 3.85182C3.64081 5.03279 2.8238 6.72431 2.67173 9.33637C2.59055 10.7404 2.59313 12.1882 2.5957 13.5897C2.59828 14.5321 2.59957 15.5055 2.57637 16.4725C2.5738 17.8597 2.58153 19.4687 2.70009 21.0391C2.81735 22.6004 3.19364 23.7736 3.88436 24.7328C5.05576 26.3599 6.77869 27.185 9.30704 27.332C10.9565 27.4287 12.655 27.4197 14.298 27.4119C14.7697 27.4106 15.2503 27.408 15.7323 27.408Z" fill="white"/>
<path d="M15.0143 23.3314C12.8558 23.3314 10.7953 22.5191 9.28881 21.0584C7.77334 19.5886 6.92025 17.8649 6.75272 15.9361C6.48211 14.108 6.85839 12.352 7.87128 10.7185C9.53236 8.03936 12.0916 6.63277 15.2759 6.67016C18.4744 6.7011 21.5375 8.85547 22.7244 11.911V11.9123C23.3868 13.6206 23.5118 15.316 23.0955 16.9495C22.7166 18.436 22.1445 19.5435 21.2953 20.4305C19.9331 22.1156 17.8532 23.1651 15.5749 23.3146C15.388 23.3249 15.1999 23.3314 15.0143 23.3314ZM15.169 9.2487C12.9138 9.2487 11.2424 10.1744 10.062 12.0786C9.37386 13.1887 9.11999 14.3697 9.30814 15.5906L9.31845 15.6834C9.42541 17.0075 10.0027 18.1614 11.0826 19.2096C12.196 20.29 13.7721 20.8495 15.4074 20.7412C16.9834 20.6381 18.4087 19.9226 19.3184 18.7764L19.3597 18.7235L19.4061 18.6758C19.9499 18.1189 20.3288 17.3685 20.5981 16.3126C20.8829 15.1948 20.7927 14.0603 20.3223 12.847C19.5208 10.7842 17.388 9.27062 15.2502 9.25128C15.2231 9.2487 15.196 9.2487 15.169 9.2487Z" fill="white"/>
<path d="M22.9202 8.75212C22.0092 8.75341 21.2579 8.00692 21.2527 7.09541C21.2476 6.18648 21.9963 5.43096 22.9074 5.42581C23.8159 5.42065 24.5736 6.17229 24.5775 7.0851C24.5826 7.99274 23.8287 8.75083 22.9202 8.75212Z" fill="white"/>
</svg>
