<svg width="64" height="91" viewBox="0 0 64 91" fill="none" xmlns="http://www.w3.org/2000/svg">
<path d="M60.1678 39.3711C60.843 36.8569 64 34.5826 64 31.8562C64 29.1318 60.843 26.8555 60.1678 24.3412C59.4707 21.7398 61.0402 18.2024 59.7177 15.9241C58.3752 13.6141 54.4992 13.2076 52.615 11.3339C50.7327 9.45811 50.3244 5.59952 48.004 4.26309C45.7174 2.94451 42.1621 4.50896 39.5489 3.81497C37.0233 3.14279 34.7387 0 32 0C29.2633 0 26.9767 3.14279 24.4511 3.81497C21.8399 4.51094 18.2846 2.94649 15.996 4.26309C13.6756 5.59952 13.2673 9.45811 11.385 11.3339C9.5028 13.2076 5.6248 13.6141 4.28234 15.9241C2.9578 18.2024 4.52932 21.7398 3.83219 24.3412C3.15698 26.8555 0 29.1318 0 31.8562C0 34.5826 3.15698 36.8569 3.83219 39.3711C4.53131 41.9726 2.95979 45.51 4.28234 47.7882C5.6248 50.0982 9.50081 50.5047 11.385 52.3785C13.2693 54.2543 13.6756 58.1129 15.996 59.4493C18.2846 60.7679 21.8379 59.2034 24.4511 59.8974C26.9767 60.5696 29.2633 63.7124 32 63.7124C34.7367 63.7124 37.0233 60.5696 39.5489 59.8974C42.1621 59.2014 45.7174 60.7659 48.004 59.4493C50.3244 58.1129 50.7327 54.2543 52.615 52.3785C54.4992 50.5047 58.3752 50.0982 59.7177 47.7882C61.0402 45.51 59.4707 41.9726 60.1678 39.3711ZM55.262 45.2264C54.1347 47.1656 50.8821 47.5067 49.3006 49.0791C47.7211 50.6534 47.3786 53.8914 45.4306 55.0117C43.5105 56.1181 40.5288 54.8055 38.3359 55.3884C36.2166 55.9516 34.2985 58.5907 32 58.5907C29.7015 58.5907 27.7834 55.9535 25.6641 55.3884C23.4712 54.8035 20.4895 56.1181 18.5694 55.0117C16.6214 53.8914 16.2808 50.6515 14.6994 49.0791C13.1199 47.5067 9.8673 47.1656 8.73995 45.2264C7.63052 43.315 8.94709 40.3467 8.36151 38.1636C7.79584 36.0538 5.14478 34.1444 5.14478 31.8562C5.14478 29.57 7.79584 27.6605 8.36151 25.5508C8.94709 23.3677 7.62853 20.3974 8.73995 18.4879C9.8673 16.5487 13.1199 16.2077 14.6994 14.6353C16.2808 13.0609 16.6214 9.82295 18.5694 8.70265C20.4895 7.59623 23.4732 8.90887 25.6641 8.32591C27.7834 7.76279 29.7015 5.12364 32 5.12364C34.2965 5.12364 36.2166 7.76081 38.3359 8.32591C40.5288 8.90887 43.5105 7.59623 45.4306 8.70265C47.3786 9.82295 47.7211 13.0629 49.3006 14.6353C50.8821 16.2077 54.1347 16.5487 55.262 18.4879C56.3715 20.3994 55.0549 23.3677 55.6405 25.5508C56.2062 27.6605 58.8572 29.57 58.8572 31.8562C58.8572 34.1444 56.2081 36.0538 55.6405 38.1636C55.0529 40.3467 56.3715 43.315 55.262 45.2264Z" fill="#0095E9"/>
<path d="M34.3583 66.6033C34.5973 66.4308 34.91 66.6846 34.7905 66.9523L30.056 77.6219L24.5189 90.0979C22.8438 92.0887 21.4934 90.1634 21.4934 90.1634L14.8189 82.1844H3.43385C1.4341 81.3873 1.99977 79.7872 1.99977 79.7872L10.8054 60.4248C10.907 60.1988 11.2297 60.1988 11.3313 60.4248C12.0364 61.9853 12.7375 63.5557 14.054 64.3132C16.3406 65.6298 19.8959 64.0653 22.5092 64.7613C23.3218 64.9774 24.1126 65.4513 24.8993 65.9926C26.5545 67.1328 28.2037 68.5763 30.058 68.5763C31.5917 68.5782 32.986 67.5888 34.3583 66.6033Z" fill="#0095E9"/>
<path d="M61.8389 81.0364H50.4559L43.7794 89.0153C43.7794 89.0153 42.431 90.9386 40.7539 88.9499L35.4996 77.1084C35.3203 76.7039 35.3203 76.2439 35.4996 75.8394L40.3774 64.8465C41.1642 64.3052 41.9529 63.8313 42.7676 63.6152C45.3808 62.9192 48.9341 64.4837 51.2227 63.1671C52.4935 62.4354 53.1906 60.9463 53.8698 59.4433C54.0012 59.1538 54.4135 59.1538 54.545 59.4433L63.275 78.6411C63.273 78.6411 63.8387 80.2393 61.8389 81.0364Z" fill="#0095E9"/>
<path d="M27.0106 43.7294L17.7787 34.539C16.9242 33.6883 16.9242 32.3103 17.7787 31.4596C18.6331 30.609 20.0174 30.609 20.8719 31.4596L27.0106 37.5707L43.1301 21.5237C43.9846 20.673 45.3689 20.673 46.2233 21.5237C47.0778 22.3743 47.0778 23.7524 46.2233 24.603L27.0106 43.7294Z" fill="#0095E9"/>
</svg>
