<svg width="95" height="122" viewBox="0 0 95 122" fill="none" xmlns="http://www.w3.org/2000/svg">
<g filter="url(#filter0_f_37_337)">
<path d="M62.4268 20.9912V33.7744H60.9229C53.9046 33.8818 48.2471 35.708 43.9502 39.2529C39.6891 42.7979 37.1289 47.7214 36.2695 54.0234C40.4232 49.7982 45.6689 47.6855 52.0068 47.6855C58.8102 47.6855 64.2171 50.1204 68.2275 54.9902C72.238 59.86 74.2432 66.2695 74.2432 74.2188C74.2432 79.3034 73.1331 83.9046 70.9131 88.0225C68.7288 92.1403 65.6136 95.3451 61.5674 97.6367C57.557 99.9284 53.0094 101.074 47.9248 101.074C39.6891 101.074 33.029 98.2096 27.9443 92.4805C22.8955 86.7513 20.3711 79.1064 20.3711 69.5459V63.96C20.3711 55.4736 21.9645 47.9899 25.1514 41.5088C28.374 34.9919 32.9753 29.9609 38.9551 26.416C44.9707 22.8353 51.9352 21.027 59.8486 20.9912H62.4268ZM47.2803 60.1465C44.7738 60.1465 42.5 60.8089 40.459 62.1338C38.418 63.4229 36.9141 65.1416 35.9473 67.29V72.0166C35.9473 77.2087 36.9678 81.2728 39.0088 84.209C41.0498 87.1094 43.9144 88.5596 47.6025 88.5596C50.9326 88.5596 53.6182 87.2526 55.6592 84.6387C57.736 81.9889 58.7744 78.5693 58.7744 74.3799C58.7744 70.1188 57.736 66.6813 55.6592 64.0674C53.5824 61.4535 50.7894 60.1465 47.2803 60.1465Z" fill="#FFF5D1"/>
</g>
<defs>
<filter id="filter0_f_37_337" x="0.371094" y="0.991211" width="93.8721" height="120.083" filterUnits="userSpaceOnUse" color-interpolation-filters="sRGB">
<feFlood flood-opacity="0" result="BackgroundImageFix"/>
<feBlend mode="normal" in="SourceGraphic" in2="BackgroundImageFix" result="shape"/>
<feGaussianBlur stdDeviation="10" result="effect1_foregroundBlur_37_337"/>
</filter>
</defs>
</svg>
