<svg width="64" height="74" viewBox="0 0 64 74" fill="none" xmlns="http://www.w3.org/2000/svg">
<path d="M35.3229 10.5049V8.05445C35.3229 7.25529 35.9742 6.60928 36.7756 6.60928H40.1488C40.9501 6.60928 41.6015 5.96131 41.6015 5.16411V1.44713C41.6015 0.647969 40.9501 0 40.1488 0H23.8512C23.0499 0 22.3985 0.647969 22.3985 1.44713V5.16411C22.3985 5.96131 23.0499 6.60928 23.8512 6.60928H27.2264C28.0297 6.60928 28.6791 7.25529 28.6791 8.05445V10.5049C12.5888 12.1622 0 25.7303 0 42.1671C0 59.7211 14.3553 74 32.001 74C49.6447 74 64 59.7211 64 42.1671C64 25.7303 51.4112 12.1622 35.3229 10.5049ZM32.001 69.0911C17.0772 69.0911 4.93446 57.0134 4.93446 42.1671C4.93446 27.3207 17.0772 15.243 32.001 15.243C46.9228 15.243 59.0655 27.3207 59.0655 42.1671C59.0655 57.0134 46.9228 69.0911 32.001 69.0911Z" fill="#0095E9"/>
<path d="M42.914 40.5079L40.6738 43.3471L38.9112 45.5817L37.123 47.7965C36.515 48.527 35.915 49.2633 35.3031 49.9898C34.6873 50.7124 34.0833 51.4448 33.4557 52.1615C32.2161 53.6047 30.945 55.0243 29.6561 56.4302C28.3613 57.8322 27.0448 59.2185 25.6572 60.5537C26.5218 58.8375 27.4573 57.1724 28.4146 55.5231C29.3778 53.8776 30.3588 52.2479 31.3713 50.6397C31.8687 49.8288 32.3918 49.0355 32.8991 48.2344C33.4142 47.4352 33.9392 46.6459 34.4603 45.8507L35.5834 44.1797C34.4011 44.1993 33.2188 44.1974 32.0365 44.2072C30.8463 44.2131 29.6581 44.1974 28.4699 44.1915C27.2797 44.1856 26.0915 44.1522 24.9033 44.1345L21.086 44.0756L23.3736 41.1303C24.6013 39.5477 25.8428 37.9749 27.106 36.4198C27.7337 35.6383 28.3791 34.8705 29.0166 34.0949C29.6581 33.3252 30.3095 32.5614 30.9588 31.7956C32.2694 30.2739 33.5958 28.7639 34.9557 27.2795C36.3196 25.797 37.7072 24.3283 39.1678 22.9185C38.2539 24.7288 37.2611 26.4823 36.2486 28.222C35.2301 29.9578 34.18 31.67 33.1122 33.3704C32.5734 34.2147 32.0345 35.061 31.4878 35.9014C30.9351 36.7379 30.3943 37.5802 29.8318 38.4108C29.4094 39.0431 28.9831 39.6734 28.5528 40.3017C29.7134 40.2978 30.874 40.2801 32.0365 40.286C33.2247 40.2958 34.413 40.2958 35.6012 40.3154C36.7914 40.341 37.9796 40.3508 39.1678 40.3881L42.914 40.5079Z" fill="#0095E9"/>
</svg>
