<svg width="30" height="30" viewBox="0 0 30 30" fill="none" xmlns="http://www.w3.org/2000/svg">
<path d="M21.778 17.7958C21.1062 17.6567 20.4688 17.3798 19.94 16.9473C19.2975 16.4225 18.8007 16.3947 18.4353 16.917C18.2157 17.2293 17.9883 17.5379 17.752 17.8376C17.3164 18.3876 17.1121 18.442 16.4734 18.184C14.4348 17.3608 12.9289 15.9407 11.7959 14.0996C11.6197 13.8125 11.6388 13.5684 11.8623 13.3219C12.1306 13.0259 12.3975 12.73 12.6504 12.4228C12.8625 12.1648 12.9659 11.8841 12.819 11.5414C12.4167 10.6081 12.0322 9.6673 11.6337 8.7328C11.5456 8.52668 11.4332 8.29906 11.1892 8.26745C10.3934 8.16502 9.62579 8.15743 9.02163 8.84155C8.3255 9.63063 7.95508 10.5272 7.97424 11.6021C7.9538 12.2912 8.13262 12.964 8.43407 13.6026C9.21067 15.2478 10.3462 16.6413 11.6171 17.9311C13.6199 19.962 16.0481 21.219 18.8798 21.6299C20.8086 21.9107 22.5457 20.392 22.5521 18.5571C22.5534 18.1322 22.3605 17.916 21.778 17.7958Z" fill="white"/>
<path d="M0 30L2.58398 22.113C1.53532 20.3717 0.858347 18.3674 0.620769 16.2935C0.29378 13.4572 0.802146 10.5335 2.05135 8.06511C4.30451 3.61263 8.9986 0.466427 14.0095 0.0491257C14.4706 0.00992465 14.947 -0.00651451 15.426 0.00233735C15.8986 0.00992465 16.3712 0.0415384 16.8336 0.0946495C17.31 0.149025 17.7775 0.224898 18.2245 0.319739C18.6652 0.412052 19.1212 0.530919 19.5772 0.671284C20.0179 0.807856 20.4598 0.965925 20.8903 1.14423C21.3156 1.31873 21.7422 1.51727 22.1574 1.73477C22.5687 1.94974 22.9774 2.18748 23.3682 2.44165C23.7591 2.69456 24.141 2.96771 24.5025 3.25223C24.8678 3.53928 25.2254 3.8491 25.5614 4.17029C25.8973 4.49023 26.2243 4.83418 26.5296 5.19079C26.8463 5.56004 27.1401 5.94193 27.4058 6.32382C27.6779 6.7133 27.941 7.13819 28.1862 7.58205C28.4302 8.02717 28.6473 8.47735 28.8351 8.92121C29.0241 9.36886 29.194 9.83548 29.3396 10.3046C29.484 10.7712 29.6066 11.2505 29.7037 11.731C29.8007 12.2052 29.8748 12.6946 29.9246 13.1878C29.9745 13.6822 30 14.1779 30 14.661C30 15.1605 29.9757 15.6562 29.9259 16.1367C29.8761 16.6312 29.7995 17.1243 29.6986 17.6023C29.6462 17.8578 29.581 18.1309 29.5057 18.4104C28.3484 22.6605 25.2242 26.2443 21.1496 27.9982C17.0763 29.7534 12.3004 29.5738 8.37272 27.5177L8.26159 27.4595C8.22966 27.4431 8.19006 27.4216 8.15047 27.4013C8.0866 27.4203 8.02018 27.4418 7.97292 27.457L7.40835 27.6378C6.45038 27.9426 5.49112 28.2486 4.53187 28.5546L0 30ZM8.24882 24.8318C8.32035 24.8318 8.3906 24.8356 8.46213 24.8457C8.82616 24.8925 9.14804 25.0632 9.4597 25.2263L9.56827 25.2832C12.8139 26.9828 16.762 27.132 20.1303 25.6803C23.4985 24.2299 26.0812 21.267 27.0379 17.7554C27.0992 17.5277 27.1529 17.3052 27.1963 17.0953C27.2793 16.6969 27.3419 16.291 27.3841 15.8838C27.425 15.488 27.4454 15.077 27.4454 14.6623C27.4454 14.2639 27.4237 13.8542 27.3828 13.4432C27.3407 13.0323 27.2793 12.6251 27.1989 12.2331C27.1171 11.8322 27.0149 11.4326 26.8962 11.0457C26.7761 10.6574 26.6356 10.2705 26.4772 9.89871C26.3226 9.53072 26.1425 9.15895 25.942 8.79223C25.7415 8.4293 25.5256 8.08028 25.3021 7.76035C25.0824 7.44422 24.8423 7.13187 24.583 6.82838C24.3339 6.53753 24.0657 6.25554 23.7898 5.99125C23.5113 5.72443 23.2188 5.47025 22.9161 5.23378C22.6146 4.99605 22.2966 4.76969 21.9709 4.55851C21.6464 4.34733 21.3092 4.15133 20.9669 3.97303C20.6195 3.79093 20.2657 3.62654 19.9119 3.48112C19.5517 3.33316 19.1838 3.20038 18.8172 3.08658C18.4391 2.96897 18.0611 2.8716 17.6945 2.79446C17.3228 2.71606 16.937 2.65283 16.5423 2.60731C16.163 2.56432 15.7721 2.53776 15.3838 2.53144C14.993 2.52512 14.606 2.53776 14.2304 2.56937C10.083 2.9146 6.2013 5.51578 4.339 9.19815C3.30949 11.2341 2.89181 13.6532 3.1626 16.009C3.36952 17.8059 3.96986 19.5358 4.89973 21.0103L4.91761 21.0394C4.99808 21.1659 5.06834 21.2784 5.12326 21.3897L5.33529 21.812L5.2165 22.2685C5.19862 22.3394 5.16669 22.4418 5.1437 22.5126L3.97497 26.0786C4.86014 25.7966 5.74531 25.5146 6.63048 25.2326L7.18866 25.0543C7.51309 24.9481 7.87585 24.8318 8.24882 24.8318Z" fill="white"/>
</svg>
