<svg width="219" height="68" viewBox="0 0 219 68" fill="none" xmlns="http://www.w3.org/2000/svg">
<path d="M8.54785 52.4663H13.5039V54.6025H8.54785V60.2178H6.27734V54.6025H1.32129V52.4663H6.27734V47.2783H8.54785V52.4663ZM27.5054 45.4961L20.1445 62H17.7764L25.1128 46.082H15.4937V44.2266H27.5054V45.4961ZM36.4165 54.7856C36.4165 52.9465 36.6606 51.1805 37.1489 49.4878C37.6453 47.7951 38.3818 46.257 39.3584 44.8735C40.335 43.4901 41.3481 42.5135 42.3979 41.9438L42.8618 43.4331C41.6737 44.3446 40.6971 45.7362 39.9321 47.6079C39.1753 49.4797 38.7603 51.5752 38.687 53.8945L38.6748 54.9321C38.6748 58.0734 39.2485 60.7996 40.396 63.1108C41.0877 64.4943 41.9097 65.5767 42.8618 66.3579L42.3979 67.7373C41.3156 67.1351 40.2821 66.126 39.2974 64.71C37.3768 61.943 36.4165 58.6349 36.4165 54.7856ZM53.4697 54.1875C52.9977 54.749 52.4321 55.2007 51.7729 55.5425C51.1219 55.8843 50.4058 56.0552 49.6245 56.0552C48.5991 56.0552 47.7039 55.8029 46.939 55.2983C46.1821 54.7938 45.5962 54.0858 45.1812 53.1743C44.7661 52.2547 44.5586 51.2415 44.5586 50.1348C44.5586 48.9466 44.7824 47.8765 45.23 46.9243C45.6857 45.9722 46.3286 45.2438 47.1587 44.7393C47.9888 44.2347 48.9572 43.9824 50.064 43.9824C51.8218 43.9824 53.2052 44.6416 54.2144 45.96C55.2316 47.2702 55.7402 49.0605 55.7402 51.3311V51.9902C55.7402 55.4489 55.0566 57.9757 53.6895 59.5708C52.3223 61.1577 50.2593 61.9715 47.5005 62.0122H47.061V60.1079H47.5371C49.4007 60.0754 50.833 59.5911 51.834 58.6553C52.835 57.7113 53.3802 56.222 53.4697 54.1875ZM49.9907 54.1875C50.7476 54.1875 51.4434 53.9556 52.0781 53.4917C52.721 53.0278 53.189 52.4541 53.4819 51.7705V50.8672C53.4819 49.3861 53.1605 48.1816 52.5176 47.2539C51.8747 46.3262 51.0609 45.8623 50.0762 45.8623C49.0833 45.8623 48.2858 46.2448 47.6836 47.0098C47.0814 47.7666 46.7803 48.7676 46.7803 50.0127C46.7803 51.2253 47.0692 52.2262 47.647 53.0156C48.2329 53.7969 49.0142 54.1875 49.9907 54.1875ZM67.7153 44.2144V46.1309H67.3003C65.5425 46.1634 64.1427 46.6842 63.1011 47.6934C62.0594 48.7025 61.4572 50.1226 61.2944 51.9536C62.2303 50.8794 63.508 50.3423 65.1274 50.3423C66.6737 50.3423 67.9066 50.8875 68.8262 51.978C69.7539 53.0685 70.2178 54.4764 70.2178 56.2017C70.2178 58.0327 69.7173 59.4976 68.7163 60.5962C67.7235 61.6948 66.3888 62.2441 64.7124 62.2441C63.0116 62.2441 61.6322 61.5931 60.5742 60.291C59.5163 58.9808 58.9873 57.2962 58.9873 55.2373V54.3706C58.9873 51.0991 59.6831 48.6007 61.0747 46.8755C62.4744 45.1421 64.5537 44.255 67.3125 44.2144H67.7153ZM64.749 52.2222C63.9759 52.2222 63.2638 52.4541 62.6128 52.918C61.9618 53.3818 61.5101 53.9637 61.2578 54.6636V55.4937C61.2578 56.9585 61.5874 58.1385 62.2466 59.0337C62.9058 59.9289 63.7277 60.3765 64.7124 60.3765C65.7297 60.3765 66.5272 60.0021 67.105 59.2534C67.6909 58.5047 67.9839 57.5241 67.9839 56.3115C67.9839 55.0908 67.6868 54.1061 67.0928 53.3574C66.5068 52.6006 65.7256 52.2222 64.749 52.2222ZM84.3657 45.4961L77.0049 62H74.6367L81.9731 46.082H72.354V44.2266H84.3657V45.4961ZM92.3735 54.9077C92.3735 56.7225 92.1335 58.464 91.6533 60.1323C91.1813 61.7925 90.453 63.3265 89.4683 64.7344C88.4917 66.1423 87.4663 67.1432 86.3921 67.7373L85.916 66.3579C87.1693 65.3976 88.1743 63.9084 88.9312 61.8901C89.6961 59.8638 90.0868 57.6177 90.103 55.1519V54.7612C90.103 53.0522 89.924 51.4653 89.5659 50.0005C89.2078 48.5275 88.7074 47.2091 88.0645 46.0454C87.4297 44.8817 86.7135 43.9743 85.916 43.3232L86.3921 41.9438C87.4663 42.5379 88.4876 43.5308 89.4561 44.9224C90.4326 46.314 91.161 47.848 91.6411 49.5244C92.1294 51.2008 92.3735 52.9953 92.3735 54.9077ZM112.967 54.4194C112.967 57.0643 112.515 59.0296 111.612 60.3154C110.708 61.6012 109.297 62.2441 107.376 62.2441C105.48 62.2441 104.076 61.6175 103.165 60.3643C102.253 59.1029 101.781 57.223 101.749 54.7246V51.7095C101.749 49.0972 102.2 47.1562 103.104 45.8867C104.007 44.6172 105.423 43.9824 107.352 43.9824C109.264 43.9824 110.672 44.5968 111.575 45.8257C112.479 47.0464 112.942 48.9344 112.967 51.4897V54.4194ZM110.708 51.3311C110.708 49.4186 110.44 48.027 109.903 47.1562C109.366 46.2773 108.515 45.8379 107.352 45.8379C106.196 45.8379 105.354 46.2733 104.825 47.144C104.296 48.0148 104.023 49.3535 104.007 51.1602V54.7734C104.007 56.694 104.284 58.1141 104.837 59.0337C105.398 59.9451 106.245 60.4009 107.376 60.4009C108.491 60.4009 109.317 59.9696 109.854 59.1069C110.399 58.2443 110.684 56.8853 110.708 55.0298V51.3311ZM125.394 56.0308H127.859V57.874H125.394V62H123.123V57.874H115.03V56.5435L122.989 44.2266H125.394V56.0308ZM117.593 56.0308H123.123V47.3149L122.854 47.8032L117.593 56.0308ZM139.432 56.0308H141.897V57.874H139.432V62H137.161V57.874H129.068V56.5435L137.027 44.2266H139.432V56.0308ZM131.631 56.0308H137.161V47.3149L136.893 47.8032L131.631 56.0308ZM148.868 55.3716H142.911V53.5283H148.868V55.3716ZM162.491 62H150.845V60.3765L156.998 53.5405C157.909 52.507 158.536 51.6688 158.877 51.0259C159.227 50.3748 159.402 49.7035 159.402 49.0117C159.402 48.084 159.122 47.3231 158.56 46.729C157.999 46.1349 157.25 45.8379 156.314 45.8379C155.191 45.8379 154.316 46.1593 153.689 46.8022C153.071 47.437 152.762 48.3241 152.762 49.4634H150.503C150.503 47.8276 151.028 46.5052 152.078 45.4961C153.136 44.487 154.548 43.9824 156.314 43.9824C157.966 43.9824 159.272 44.4178 160.232 45.2886C161.193 46.1512 161.673 47.3027 161.673 48.7432C161.673 50.4928 160.558 52.5762 158.328 54.9932L153.567 60.1567H162.491V62ZM176.529 62H164.883V60.3765L171.036 53.5405C171.947 52.507 172.574 51.6688 172.916 51.0259C173.265 50.3748 173.44 49.7035 173.44 49.0117C173.44 48.084 173.16 47.3231 172.598 46.729C172.037 46.1349 171.288 45.8379 170.352 45.8379C169.229 45.8379 168.354 46.1593 167.728 46.8022C167.109 47.437 166.8 48.3241 166.8 49.4634H164.542C164.542 47.8276 165.066 46.5052 166.116 45.4961C167.174 44.487 168.586 43.9824 170.352 43.9824C172.004 43.9824 173.31 44.4178 174.271 45.2886C175.231 46.1512 175.711 47.3027 175.711 48.7432C175.711 50.4928 174.596 52.5762 172.366 54.9932L167.605 60.1567H176.529V62ZM183.853 55.3716H177.896V53.5283H183.853V55.3716ZM197.476 62H185.831V60.3765L191.983 53.5405C192.894 52.507 193.521 51.6688 193.863 51.0259C194.213 50.3748 194.388 49.7035 194.388 49.0117C194.388 48.084 194.107 47.3231 193.545 46.729C192.984 46.1349 192.235 45.8379 191.299 45.8379C190.176 45.8379 189.301 46.1593 188.675 46.8022C188.056 47.437 187.747 48.3241 187.747 49.4634H185.489C185.489 47.8276 186.014 46.5052 187.063 45.4961C188.121 44.487 189.533 43.9824 191.299 43.9824C192.951 43.9824 194.257 44.4178 195.218 45.2886C196.178 46.1512 196.658 47.3027 196.658 48.7432C196.658 50.4928 195.543 52.5762 193.313 54.9932L188.553 60.1567H197.476V62ZM211.343 45.4961L203.982 62H201.614L208.951 46.082H199.332V44.2266H211.343V45.4961Z" fill="white"/>
<path d="M15.2422 8.19287H9.79785V23H6.13574V8.19287H0.764648V5.22656H15.2422V8.19287ZM22.0903 23.2441C20.1535 23.2441 18.5747 22.6501 17.354 21.4619C16.1414 20.2738 15.5352 18.6909 15.5352 16.7134V16.3716C15.5352 15.0451 15.7915 13.861 16.3042 12.8193C16.8169 11.7695 17.5412 10.9639 18.4771 10.4023C19.4211 9.83268 20.4953 9.54785 21.6997 9.54785C23.5063 9.54785 24.9264 10.1175 25.96 11.2568C27.0016 12.3962 27.5225 14.0116 27.5225 16.103V17.5435H19.1118C19.2257 18.4061 19.5675 19.0978 20.1372 19.6187C20.715 20.1395 21.4434 20.3999 22.3223 20.3999C23.6813 20.3999 24.7433 19.9076 25.5083 18.9229L27.2417 20.8638C26.7127 21.6125 25.9966 22.1984 25.0933 22.6216C24.1899 23.0366 23.189 23.2441 22.0903 23.2441ZM21.6875 12.4043C20.9876 12.4043 20.418 12.6403 19.9785 13.1123C19.5472 13.5843 19.2705 14.2598 19.1484 15.1387H24.0557V14.8579C24.0394 14.0767 23.8278 13.4744 23.4209 13.0513C23.014 12.62 22.4362 12.4043 21.6875 12.4043ZM41.0234 9.79199V23H37.4956V12.6484H34.3828L34.1631 16.7256C34.0247 18.8984 33.5975 20.4813 32.8813 21.4741C32.1652 22.467 31.0991 22.9756 29.6831 23H28.4868L28.4502 20.1313L28.8896 20.0947C29.5244 20.0459 29.9883 19.6715 30.2812 18.9717C30.5742 18.2718 30.7573 17.0796 30.8306 15.395L31.0747 9.79199H41.0234ZM49.8247 23.2441C47.8879 23.2441 46.3091 22.6501 45.0884 21.4619C43.8758 20.2738 43.2695 18.6909 43.2695 16.7134V16.3716C43.2695 15.0451 43.5259 13.861 44.0386 12.8193C44.5513 11.7695 45.2756 10.9639 46.2114 10.4023C47.1554 9.83268 48.2297 9.54785 49.4341 9.54785C51.2407 9.54785 52.6608 10.1175 53.6943 11.2568C54.736 12.3962 55.2568 14.0116 55.2568 16.103V17.5435H46.8462C46.9601 18.4061 47.3019 19.0978 47.8716 19.6187C48.4494 20.1395 49.1777 20.3999 50.0566 20.3999C51.4157 20.3999 52.4777 19.9076 53.2427 18.9229L54.9761 20.8638C54.4471 21.6125 53.731 22.1984 52.8276 22.6216C51.9243 23.0366 50.9233 23.2441 49.8247 23.2441ZM49.4219 12.4043C48.722 12.4043 48.1523 12.6403 47.7129 13.1123C47.2816 13.5843 47.0049 14.2598 46.8828 15.1387H51.79V14.8579C51.7738 14.0767 51.5622 13.4744 51.1553 13.0513C50.7484 12.62 50.1706 12.4043 49.4219 12.4043ZM56.7461 16.4937C56.7461 14.3696 57.1774 12.681 58.04 11.4277C58.9108 10.1745 60.1071 9.54785 61.6289 9.54785C62.223 9.54785 62.7642 9.66585 63.2524 9.90186V4.25H66.7803V9.91406C67.2848 9.66992 67.8423 9.54785 68.4526 9.54785C69.9826 9.54785 71.1789 10.1745 72.0415 11.4277C72.9123 12.6729 73.3477 14.4469 73.3477 16.75C73.3477 18.7438 72.9123 20.3267 72.0415 21.4985C71.1707 22.6623 69.9826 23.2441 68.4771 23.2441C67.8504 23.2441 67.2848 23.1302 66.7803 22.9023V28.0781H63.2524V22.9146C62.7642 23.1343 62.2148 23.2441 61.6045 23.2441C60.1803 23.2441 59.0369 22.7111 58.1743 21.645C57.3117 20.5789 56.8397 19.1182 56.7583 17.2627L56.7461 16.4937ZM69.8076 16.4937C69.8076 15.1753 69.6082 14.1662 69.2095 13.4663C68.8107 12.7583 68.2492 12.4043 67.5249 12.4043C67.297 12.4043 67.0488 12.4328 66.7803 12.4897V20.3389C67.0081 20.3877 67.2645 20.4121 67.5493 20.4121C68.9328 20.4121 69.6815 19.3623 69.7954 17.2627L69.8076 16.4937ZM60.2739 16.75C60.2739 19.1833 61.0186 20.3999 62.5078 20.3999C62.8171 20.3999 63.0653 20.3796 63.2524 20.3389V12.4897C62.9839 12.4328 62.7438 12.4043 62.5322 12.4043C61.8079 12.4043 61.2505 12.7502 60.8599 13.4419C60.4692 14.1255 60.2739 15.2282 60.2739 16.75ZM74.9834 16.2739C74.9834 14.9637 75.2357 13.7959 75.7402 12.7705C76.2448 11.7451 76.9691 10.9517 77.9131 10.3901C78.8652 9.82861 79.9679 9.54785 81.2212 9.54785C83.0034 9.54785 84.4561 10.0931 85.5791 11.1836C86.7103 12.2741 87.341 13.7552 87.4712 15.627L87.4956 16.5303C87.4956 18.5566 86.93 20.1842 85.7988 21.4131C84.6676 22.6338 83.1499 23.2441 81.2456 23.2441C79.3413 23.2441 77.8195 22.6338 76.6802 21.4131C75.549 20.1924 74.9834 18.5322 74.9834 16.4326V16.2739ZM78.5112 16.5303C78.5112 17.7835 78.7472 18.7438 79.2192 19.4111C79.6912 20.0703 80.3667 20.3999 81.2456 20.3999C82.1001 20.3999 82.7674 20.0744 83.2476 19.4233C83.7277 18.7642 83.9678 17.7144 83.9678 16.2739C83.9678 15.0451 83.7277 14.0929 83.2476 13.4175C82.7674 12.742 82.092 12.4043 81.2212 12.4043C80.3586 12.4043 79.6912 12.742 79.2192 13.4175C78.7472 14.0848 78.5112 15.1224 78.5112 16.5303ZM101.119 23H97.5786V17.9219H93.1963V23H89.6685V9.79199H93.1963V15.0898H97.5786V9.79199H101.119V23Z" fill="white"/>
</svg>
