<svg width="324" height="108" viewBox="0 0 324 108" fill="none" xmlns="http://www.w3.org/2000/svg">
<path d="M34.3251 56.5016C34.3251 56.8687 34.3105 57.1818 34.2778 57.4337C34.2451 57.6856 34.2015 57.8871 34.1397 58.0418C34.0779 58.1966 34.0015 58.3045 33.907 58.3729C33.8124 58.4413 33.7034 58.4737 33.5798 58.4737H25.592V77.7188C25.592 77.8411 25.552 77.9491 25.472 78.0426C25.392 78.1362 25.2575 78.2118 25.0721 78.2729C24.8867 78.3341 24.6358 78.3809 24.3268 78.4097C24.0177 78.4385 23.6178 78.4565 23.1342 78.4565C22.6616 78.4565 22.2689 78.4421 21.9526 78.4097C21.6363 78.3773 21.3855 78.3341 21.2 78.2729C21.0146 78.2118 20.8801 78.1362 20.8001 78.0426C20.7201 77.9491 20.6801 77.8447 20.6801 77.7188V56.023C20.6801 55.5084 20.8146 55.1234 21.08 54.8715C21.3455 54.6196 21.6981 54.4937 22.1308 54.4937H33.5834C33.8306 54.4937 34.0161 54.6484 34.1433 54.9543C34.2633 55.2602 34.3251 55.7747 34.3251 56.5016Z" fill="white"/>
<path d="M56.7686 77.7143C56.7686 77.8366 56.7286 77.9446 56.6486 78.0382C56.5686 78.1317 56.4341 78.2073 56.2486 78.2685C56.0632 78.3296 55.8124 78.3764 55.496 78.4052C55.1797 78.434 54.7834 78.452 54.3144 78.452C53.8454 78.452 53.4491 78.4376 53.1328 78.4052C52.8165 78.3728 52.5693 78.3296 52.3875 78.2685C52.2057 78.2073 52.0821 78.1317 52.0057 78.0382C51.9294 77.9446 51.893 77.8402 51.893 77.7143V65.1445C51.893 64.6659 51.9003 64.1945 51.9112 63.7339C51.9221 63.2733 51.9403 62.863 51.9657 62.5068H51.9294C51.8312 62.6795 51.7112 62.8774 51.5767 63.1041C51.4385 63.3308 51.2931 63.5719 51.1404 63.8238C50.9841 64.0757 50.8205 64.3348 50.646 64.5975C50.4714 64.8638 50.2969 65.1157 50.126 65.364L41.7456 77.7323C41.6475 77.869 41.5457 77.9842 41.4402 78.0813C41.3348 78.1785 41.1966 78.2577 41.0294 78.3116C40.8621 78.3656 40.6585 78.4052 40.4149 78.4232C40.1714 78.4412 39.8587 78.452 39.4733 78.452C38.9897 78.452 38.5971 78.4376 38.2989 78.4052C38.0008 78.3728 37.7681 78.3296 37.6009 78.2685C37.4336 78.2073 37.3173 78.1281 37.2555 78.0274C37.1937 77.9302 37.1609 77.8114 37.1609 77.6783V55.1153C37.1609 54.993 37.2009 54.885 37.2809 54.7915C37.3609 54.6979 37.4991 54.6223 37.6918 54.5611C37.8845 54.5 38.1353 54.4532 38.4444 54.4244C38.7534 54.3956 39.1461 54.3776 39.6187 54.3776C40.1023 54.3776 40.4986 54.392 40.8112 54.4244C41.1203 54.4568 41.3712 54.5 41.5566 54.5611C41.742 54.6223 41.8729 54.6979 41.9492 54.7915C42.0256 54.885 42.0619 54.993 42.0619 55.1153V67.7607C42.0619 68.1529 42.0547 68.5703 42.0438 69.013C42.0292 69.4556 42.011 69.8838 41.9892 70.3013H42.0256C42.2365 69.9342 42.5019 69.4916 42.8255 68.9734C43.149 68.4588 43.4835 67.955 43.8326 67.462L52.213 55.0937C52.3002 54.9714 52.3948 54.8634 52.4929 54.7699C52.5911 54.6763 52.7256 54.6007 52.8928 54.5396C53.0601 54.4784 53.2673 54.4352 53.5182 54.41C53.7654 54.3848 54.0817 54.374 54.4671 54.374C54.9398 54.374 55.3215 54.3884 55.6124 54.4208C55.9033 54.4532 56.1359 54.4964 56.3105 54.5575C56.485 54.6187 56.605 54.6943 56.674 54.7879C56.7431 54.8814 56.7758 54.993 56.7758 55.1297V77.7143H56.7686Z" fill="white"/>
<path d="M84.2367 83.9651C84.2367 84.0874 84.204 84.1918 84.1422 84.2781C84.0804 84.3645 83.9676 84.4365 83.8077 84.4905C83.6477 84.5444 83.4296 84.5876 83.1569 84.62C82.8842 84.6524 82.5315 84.6668 82.0952 84.6668C81.6735 84.6668 81.3281 84.6524 81.0627 84.62C80.7973 84.5876 80.5791 84.5444 80.4119 84.4905C80.2446 84.4365 80.1247 84.3645 80.0592 84.2781C79.9901 84.1918 79.9574 84.0874 79.9574 83.9651V78.3441H63.9238V83.9651C63.9238 84.0874 63.891 84.1918 63.8219 84.2781C63.7529 84.3645 63.6365 84.4365 63.4693 84.4905C63.302 84.5444 63.0803 84.5876 62.8076 84.62C62.5349 84.6488 62.1859 84.6668 61.7641 84.6668C61.3424 84.6668 60.9933 84.6524 60.7207 84.62C60.448 84.5876 60.2262 84.5444 60.059 84.4905C59.8917 84.4365 59.7754 84.3645 59.7136 84.2781C59.6517 84.1918 59.619 84.0874 59.619 83.9651V75.3933C59.5936 75.037 59.659 74.7815 59.8154 74.6268C59.9717 74.4721 60.2044 74.3965 60.5134 74.3965H61.6296C61.9277 73.9791 62.2113 73.5472 62.4767 73.1046C62.7421 72.662 63.0003 72.1366 63.2511 71.5284C63.4984 70.9203 63.7456 70.1934 63.9856 69.3549C64.2292 68.5128 64.4655 67.4837 64.7018 66.2673C64.9381 65.051 65.1781 63.6116 65.418 61.9455C65.6616 60.2793 65.9125 58.3217 66.1706 56.0762C66.247 55.522 66.3888 55.119 66.5997 54.8671C66.8105 54.6152 67.1341 54.4893 67.5668 54.4893H79.8774C80.3137 54.4893 80.6518 54.6152 80.9027 54.8671C81.1499 55.119 81.2736 55.5041 81.2736 56.0186V74.3965H83.3205C83.655 74.3965 83.8913 74.4865 84.0295 74.6628C84.1676 74.8427 84.2331 75.091 84.2331 75.4077V83.9651H84.2367ZM76.398 58.3973H70.7735C70.5481 60.2649 70.3299 61.9095 70.1118 63.3273C69.8937 64.7452 69.6755 65.9903 69.461 67.059C69.2429 68.1278 69.0247 69.049 68.7993 69.8227C68.5739 70.5964 68.3485 71.2657 68.1194 71.8307C67.8904 72.3957 67.6504 72.8815 67.4032 73.2881C67.1559 73.6948 66.9014 74.0618 66.6397 74.3929H76.398V58.3973Z" fill="white"/>
<path d="M104.182 61.734C104.182 63.0726 103.972 64.2601 103.55 65.2929C103.128 66.3257 102.514 67.1966 101.706 67.9019C100.899 68.6072 99.9104 69.147 98.7361 69.514C97.5617 69.8811 96.1801 70.0682 94.5913 70.0682H92.5807V77.6828C92.5807 77.8051 92.5407 77.9167 92.4608 78.0138C92.3808 78.111 92.2463 78.1938 92.0608 78.255C91.8754 78.3161 91.6245 78.3665 91.3155 78.4025C91.0065 78.4385 90.6065 78.4565 90.123 78.4565C89.6503 78.4565 89.2577 78.4385 88.9414 78.4025C88.625 78.3665 88.3742 78.3161 88.1887 78.255C88.0033 78.1938 87.8724 78.1146 87.7961 78.0138C87.7197 77.9167 87.6834 77.8051 87.6834 77.6828V56.2246C87.6834 55.6488 87.8361 55.2134 88.1378 54.9255C88.4433 54.6376 88.8432 54.4937 89.3376 54.4937H95.0167C95.5875 54.4937 96.1329 54.5152 96.6455 54.5584C97.1618 54.6016 97.7799 54.6952 98.4997 54.8355C99.2196 54.9759 99.9504 55.2386 100.688 55.62C101.427 56.0015 102.059 56.4837 102.579 57.0666C103.099 57.6496 103.499 58.3333 103.772 59.1142C104.048 59.8879 104.182 60.7659 104.182 61.734ZM99.0633 62.0866C99.0633 61.2518 98.9142 60.5644 98.6161 60.021C98.3179 59.4777 97.9507 59.0818 97.5181 58.8227C97.0854 58.5636 96.6273 58.4017 96.151 58.3333C95.6711 58.2649 95.1803 58.2326 94.6713 58.2326H92.5844V66.3257H94.7804C95.5621 66.3257 96.2165 66.2214 96.7437 66.0126C97.2709 65.8039 97.7035 65.5124 98.038 65.1382C98.3725 64.7639 98.627 64.3141 98.8015 63.7923C98.976 63.2669 99.0633 62.6984 99.0633 62.0866Z" fill="white"/>
<path d="M129.662 66.1415C129.662 68.1207 129.415 69.8912 128.916 71.4494C128.418 73.0112 127.68 74.3355 126.699 75.4222C125.717 76.509 124.503 77.3403 123.059 77.9124C121.612 78.4846 119.94 78.7689 118.042 78.7689C116.166 78.7689 114.53 78.5278 113.134 78.042C111.738 77.5562 110.574 76.8149 109.643 75.8217C108.713 74.8249 108.015 73.5618 107.549 72.0252C107.084 70.4886 106.851 68.6713 106.851 66.5698C106.851 64.6409 107.098 62.9064 107.596 61.3626C108.094 59.8189 108.833 58.509 109.814 57.4258C110.796 56.3427 112.01 55.515 113.454 54.9356C114.901 54.3598 116.58 54.0684 118.493 54.0684C120.318 54.0684 121.929 54.3095 123.325 54.7881C124.721 55.2667 125.888 56.0044 126.826 57.0012C127.764 57.998 128.469 59.2539 128.949 60.7725C129.422 62.2839 129.662 64.076 129.662 66.1415ZM124.521 66.397C124.521 65.1447 124.423 64.004 124.223 62.9784C124.023 61.9528 123.685 61.0748 123.208 60.3406C122.732 59.6101 122.092 59.0452 121.3 58.6457C120.503 58.2463 119.511 58.0448 118.318 58.0448C117.115 58.0448 116.108 58.2679 115.301 58.7177C114.493 59.1675 113.843 59.7649 113.345 60.5134C112.846 61.2619 112.497 62.1399 112.294 63.1403C112.09 64.1407 111.985 65.2023 111.985 66.3215C111.985 67.6241 112.083 68.7937 112.283 69.8337C112.483 70.8736 112.817 71.7589 113.29 72.4966C113.763 73.2343 114.395 73.7957 115.188 74.1843C115.984 74.573 116.98 74.7637 118.187 74.7637C119.394 74.7637 120.398 74.5442 121.205 74.1015C122.012 73.6589 122.663 73.058 123.161 72.2951C123.659 71.5322 124.008 70.6469 124.212 69.6321C124.415 68.6173 124.521 67.5414 124.521 66.397Z" fill="white"/>
<path d="M150.444 74.7322C150.444 75.0381 150.433 75.3008 150.415 75.5167C150.396 75.7326 150.367 75.9162 150.331 76.0709C150.295 76.2256 150.244 76.3552 150.182 76.4667C150.12 76.5783 150.022 76.7042 149.884 76.8446C149.746 76.9849 149.484 77.1685 149.091 77.388C148.699 77.6111 148.222 77.8198 147.659 78.0249C147.095 78.2264 146.448 78.3956 145.721 78.5323C144.994 78.6691 144.208 78.7338 143.365 78.7338C141.714 78.7338 140.224 78.4819 138.897 77.9781C137.566 77.4743 136.439 76.7222 135.508 75.7182C134.577 74.7178 133.861 73.4655 133.367 71.9685C132.868 70.4679 132.621 68.7226 132.621 66.7326C132.621 64.7066 132.894 62.9038 133.439 61.3312C133.985 59.7586 134.748 58.438 135.73 57.3692C136.711 56.3004 137.886 55.4907 139.26 54.9366C140.631 54.3824 142.143 54.1089 143.794 54.1089C144.463 54.1089 145.11 54.1629 145.732 54.2744C146.353 54.386 146.928 54.5299 147.455 54.7062C147.982 54.8862 148.459 55.0913 148.88 55.3252C149.302 55.5591 149.597 55.757 149.764 55.9262C149.931 56.0953 150.047 56.2284 150.109 56.34C150.171 56.4515 150.222 56.5919 150.258 56.7646C150.295 56.9374 150.324 57.1389 150.342 57.3728C150.36 57.6067 150.371 57.8946 150.371 58.24C150.371 58.6071 150.356 58.9202 150.335 59.1793C150.309 59.4384 150.266 59.6471 150.204 59.8054C150.142 59.9637 150.066 60.0825 149.978 60.1545C149.891 60.23 149.793 60.266 149.68 60.266C149.495 60.266 149.258 60.1581 148.971 59.9422C148.684 59.7262 148.317 59.4887 147.862 59.2224C147.408 58.9597 146.87 58.7186 146.241 58.5027C145.615 58.2868 144.866 58.1789 143.997 58.1789C143.041 58.1789 142.187 58.3732 141.438 58.7582C140.685 59.1469 140.049 59.6975 139.518 60.4172C138.991 61.1369 138.591 62.0041 138.318 63.0261C138.046 64.0445 137.908 65.1961 137.908 66.4735C137.908 67.8734 138.053 69.0897 138.344 70.1153C138.635 71.1409 139.053 71.9865 139.591 72.6487C140.133 73.3108 140.783 73.8074 141.547 74.1313C142.311 74.4587 143.169 74.6207 144.125 74.6207C144.994 74.6207 145.746 74.5199 146.379 74.3184C147.012 74.1169 147.553 73.8902 148.008 73.6455C148.462 73.4008 148.833 73.1777 149.124 72.9833C149.415 72.7854 149.64 72.6883 149.804 72.6883C149.927 72.6883 150.029 72.7134 150.102 72.7638C150.178 72.8142 150.24 72.9114 150.287 73.0589C150.338 73.2064 150.375 73.4116 150.4 73.6779C150.433 73.9334 150.444 74.2896 150.444 74.7322Z" fill="white"/>
<path d="M173.705 76.5377C173.854 76.9804 173.949 77.3294 173.985 77.5885C174.022 77.8476 173.974 78.0419 173.836 78.1679C173.698 78.2938 173.458 78.3766 173.109 78.409C172.76 78.4378 172.284 78.4558 171.677 78.4558C171.044 78.4558 170.549 78.445 170.197 78.427C169.844 78.409 169.571 78.373 169.386 78.3154C169.201 78.2615 169.07 78.1823 168.993 78.0851C168.917 77.988 168.855 77.8584 168.808 77.6965L167.186 72.9032H158.133L156.606 77.5669C156.555 77.7397 156.49 77.8836 156.41 77.9988C156.33 78.1139 156.199 78.2075 156.017 78.2758C155.836 78.3442 155.581 78.391 155.254 78.4126C154.923 78.4378 154.494 78.4486 153.96 78.4486C153.389 78.4486 152.941 78.4306 152.618 78.3946C152.294 78.3586 152.073 78.2686 151.949 78.1283C151.825 77.988 151.782 77.7864 151.818 77.5273C151.854 77.2682 151.949 76.9264 152.098 76.4946L159.529 55.3314C159.606 55.1227 159.689 54.9536 159.791 54.824C159.889 54.6945 160.049 54.5973 160.268 54.5289C160.486 54.4606 160.787 54.4174 161.169 54.3994C161.555 54.3814 162.064 54.3706 162.696 54.3706C163.427 54.3706 164.012 54.3814 164.449 54.3994C164.885 54.4174 165.223 54.4606 165.463 54.5289C165.703 54.5973 165.878 54.6981 165.983 54.8312C166.088 54.968 166.179 55.1515 166.252 55.3854L173.705 76.5377ZM162.642 59.0415H162.624L159.217 69.1787H166.052L162.642 59.0415Z" fill="white"/>
<path d="M195.887 77.6781C195.887 77.8005 195.847 77.912 195.767 78.0092C195.687 78.1063 195.552 78.1891 195.367 78.2503C195.182 78.3115 194.931 78.3618 194.622 78.3978C194.313 78.4338 193.92 78.4518 193.447 78.4518C192.964 78.4518 192.564 78.4338 192.248 78.3978C191.931 78.3618 191.684 78.3115 191.502 78.2503C191.32 78.1891 191.193 78.1099 191.11 78.0092C191.026 77.9084 190.99 77.8005 190.99 77.6781V68.0376H181.977V77.6781C181.977 77.8005 181.94 77.912 181.864 78.0092C181.791 78.1063 181.66 78.1891 181.471 78.2503C181.286 78.3115 181.035 78.3618 180.726 78.3978C180.417 78.4338 180.017 78.4518 179.533 78.4518C179.061 78.4518 178.668 78.4338 178.352 78.3978C178.035 78.3618 177.785 78.3115 177.599 78.2503C177.414 78.1891 177.279 78.1099 177.199 78.0092C177.119 77.912 177.079 77.8005 177.079 77.6781V55.1511C177.079 55.0288 177.119 54.9172 177.199 54.8201C177.279 54.7229 177.414 54.6401 177.599 54.579C177.785 54.5178 178.035 54.4674 178.352 54.4314C178.668 54.3954 179.061 54.3774 179.533 54.3774C180.017 54.3774 180.413 54.3954 180.726 54.4314C181.035 54.4674 181.286 54.5178 181.471 54.579C181.657 54.6401 181.788 54.7193 181.864 54.8201C181.94 54.9172 181.977 55.0288 181.977 55.1511V63.9064H190.99V55.1511C190.99 55.0288 191.03 54.9172 191.11 54.8201C191.19 54.7229 191.32 54.6401 191.502 54.579C191.68 54.5178 191.931 54.4674 192.248 54.4314C192.564 54.3954 192.964 54.3774 193.447 54.3774C193.92 54.3774 194.309 54.3954 194.622 54.4314C194.931 54.4674 195.182 54.5178 195.367 54.579C195.552 54.6401 195.687 54.7193 195.767 54.8201C195.847 54.9172 195.887 55.0288 195.887 55.1511V77.6781Z" fill="white"/>
<path d="M222.777 83.9651C222.777 84.0875 222.748 84.1918 222.682 84.2782C222.621 84.3646 222.512 84.4365 222.355 84.4905C222.199 84.5445 221.984 84.5877 221.704 84.6201C221.424 84.6488 221.075 84.6668 220.654 84.6668C220.232 84.6668 219.883 84.6524 219.61 84.6201C219.338 84.5877 219.116 84.5445 218.949 84.4905C218.781 84.4365 218.661 84.3646 218.596 84.2782C218.527 84.1918 218.494 84.0875 218.494 83.9651V78.3442H202.551C202.115 78.3442 201.773 78.2182 201.519 77.9663C201.264 77.7144 201.137 77.3294 201.137 76.8148V55.1191C201.137 54.9967 201.177 54.8887 201.257 54.7952C201.337 54.7016 201.471 54.6261 201.657 54.5649C201.842 54.5037 202.093 54.4569 202.409 54.4281C202.726 54.3993 203.118 54.3813 203.591 54.3813C204.075 54.3813 204.471 54.3957 204.784 54.4281C205.093 54.4605 205.344 54.5037 205.529 54.5649C205.714 54.6261 205.845 54.7016 205.922 54.7952C205.998 54.8887 206.034 54.9967 206.034 55.1191V74.3282H214.938V55.1191C214.938 54.9967 214.978 54.8887 215.058 54.7952C215.138 54.7016 215.273 54.6261 215.458 54.5649C215.644 54.5037 215.894 54.4569 216.214 54.4281C216.531 54.3993 216.923 54.3813 217.396 54.3813C217.88 54.3813 218.276 54.3957 218.589 54.4281C218.898 54.4605 219.148 54.5037 219.334 54.5649C219.519 54.6261 219.65 54.7016 219.727 54.7952C219.803 54.8887 219.839 54.9967 219.839 55.1191V74.3282H221.963C222.272 74.3282 222.486 74.4001 222.606 74.5405C222.722 74.6808 222.784 74.9435 222.784 75.325V83.9651H222.777Z" fill="white"/>
<path d="M240.509 76.4441C240.509 76.8003 240.494 77.099 240.461 77.3365C240.429 77.574 240.385 77.7683 240.323 77.9159C240.261 78.0634 240.185 78.1714 240.09 78.2398C239.996 78.3081 239.894 78.3405 239.785 78.3405H227.678C227.267 78.3405 226.925 78.2218 226.645 77.9807C226.366 77.7396 226.227 77.3509 226.227 76.8111V56.0186C226.227 55.4789 226.366 55.0866 226.645 54.8491C226.925 54.608 227.271 54.4893 227.678 54.4893H239.709C239.821 54.4893 239.92 54.518 240.007 54.5828C240.094 54.644 240.167 54.752 240.232 54.9067C240.294 55.0614 240.341 55.2558 240.37 55.4969C240.4 55.738 240.418 56.0402 240.418 56.4109C240.418 56.7563 240.403 57.0478 240.37 57.2853C240.338 57.5264 240.294 57.7172 240.232 57.8647C240.17 58.0123 240.094 58.1202 240.007 58.1886C239.92 58.257 239.821 58.2893 239.709 58.2893H231.103V64.1154H238.385C238.498 64.1154 238.6 64.1478 238.691 64.2162C238.785 64.2845 238.862 64.3889 238.923 64.5292C238.985 64.6696 239.032 64.8603 239.062 65.1014C239.091 65.3425 239.109 65.634 239.109 65.9759C239.109 66.3321 239.094 66.6272 239.062 66.8611C239.029 67.095 238.985 67.2821 238.923 67.4225C238.862 67.5628 238.785 67.6636 238.691 67.7284C238.596 67.7895 238.494 67.8219 238.385 67.8219H231.103V74.5512H239.781C239.894 74.5512 239.996 74.5836 240.087 74.652C240.181 74.7204 240.258 74.8283 240.32 74.9759C240.381 75.1234 240.429 75.3177 240.458 75.5552C240.487 75.7927 240.509 76.0878 240.509 76.4441Z" fill="white"/>
<path d="M263.639 77.6781C263.639 77.8005 263.599 77.912 263.519 78.0092C263.439 78.1063 263.305 78.1891 263.119 78.2503C262.934 78.3115 262.683 78.3618 262.374 78.3978C262.065 78.4338 261.672 78.4518 261.2 78.4518C260.716 78.4518 260.316 78.4338 260 78.3978C259.684 78.3618 259.436 78.3115 259.255 78.2503C259.073 78.1891 258.945 78.1099 258.862 78.0092C258.778 77.9084 258.742 77.8005 258.742 77.6781V68.0376H249.729V77.6781C249.729 77.8005 249.692 77.912 249.616 78.0092C249.543 78.1063 249.413 78.1891 249.223 78.2503C249.038 78.3115 248.787 78.3618 248.478 78.3978C248.169 78.4338 247.769 78.4518 247.286 78.4518C246.813 78.4518 246.42 78.4338 246.104 78.3978C245.788 78.3618 245.537 78.3115 245.351 78.2503C245.166 78.1891 245.031 78.1099 244.951 78.0092C244.871 77.912 244.831 77.8005 244.831 77.6781V55.1511C244.831 55.0288 244.871 54.9172 244.951 54.8201C245.031 54.7229 245.166 54.6401 245.351 54.579C245.537 54.5178 245.788 54.4674 246.104 54.4314C246.42 54.3954 246.813 54.3774 247.286 54.3774C247.769 54.3774 248.165 54.3954 248.478 54.4314C248.787 54.4674 249.038 54.5178 249.223 54.579C249.409 54.6401 249.54 54.7193 249.616 54.8201C249.692 54.9172 249.729 55.0288 249.729 55.1511V63.9064H258.742V55.1511C258.742 55.0288 258.782 54.9172 258.862 54.8201C258.942 54.7229 259.073 54.6401 259.255 54.579C259.433 54.5178 259.684 54.4674 260 54.4314C260.316 54.3954 260.716 54.3774 261.2 54.3774C261.672 54.3774 262.061 54.3954 262.374 54.4314C262.683 54.4674 262.934 54.5178 263.119 54.579C263.305 54.6401 263.439 54.7193 263.519 54.8201C263.599 54.9172 263.639 55.0288 263.639 55.1511V77.6781Z" fill="white"/>
<path d="M284.926 56.4793C284.926 56.8355 284.912 57.1414 284.879 57.3933C284.846 57.6452 284.803 57.8467 284.741 58.0015C284.679 58.1562 284.603 58.2677 284.508 58.3433C284.414 58.4189 284.312 58.4549 284.199 58.4549H278.164V77.682C278.164 77.8043 278.124 77.9159 278.044 78.013C277.964 78.1102 277.829 78.193 277.644 78.2542C277.459 78.3153 277.208 78.3657 276.891 78.4017C276.575 78.4377 276.179 78.4557 275.71 78.4557C275.237 78.4557 274.845 78.4377 274.528 78.4017C274.212 78.3657 273.961 78.3153 273.776 78.2542C273.59 78.193 273.456 78.1138 273.376 78.013C273.296 77.9159 273.256 77.8043 273.256 77.682V58.4549H267.22C267.097 58.4549 266.991 58.4189 266.904 58.3433C266.817 58.2677 266.744 58.1562 266.682 58.0015C266.62 57.8467 266.573 57.6452 266.544 57.3933C266.511 57.1414 266.497 56.8391 266.497 56.4793C266.497 56.1086 266.511 55.7955 266.544 55.54C266.573 55.2809 266.62 55.0758 266.682 54.9211C266.744 54.7663 266.82 54.6584 266.904 54.59C266.991 54.5216 267.097 54.4893 267.22 54.4893H284.207C284.319 54.4893 284.421 54.5216 284.516 54.59C284.61 54.6584 284.686 54.7699 284.748 54.9211C284.81 55.0758 284.857 55.2809 284.886 55.54C284.912 55.7991 284.926 56.1122 284.926 56.4793Z" fill="white"/>
<path d="M304.276 61.734C304.276 63.0726 304.065 64.2601 303.643 65.2929C303.222 66.3257 302.607 67.1966 301.8 67.9019C300.993 68.6072 300.004 69.147 298.83 69.514C297.655 69.8811 296.274 70.0682 294.685 70.0682H292.674V77.6828C292.674 77.8051 292.634 77.9167 292.554 78.0138C292.474 78.111 292.34 78.1938 292.154 78.255C291.969 78.3161 291.718 78.3665 291.409 78.4025C291.1 78.4385 290.7 78.4565 290.216 78.4565C289.744 78.4565 289.351 78.4385 289.035 78.4025C288.719 78.3665 288.468 78.3161 288.282 78.255C288.097 78.1938 287.966 78.1146 287.89 78.0138C287.813 77.9167 287.777 77.8051 287.777 77.6828V56.2246C287.777 55.6488 287.93 55.2134 288.231 54.9255C288.537 54.6376 288.937 54.4937 289.431 54.4937H295.11C295.681 54.4937 296.226 54.5152 296.739 54.5584C297.255 54.6016 297.873 54.6952 298.593 54.8355C299.313 54.9759 300.044 55.2386 300.782 55.62C301.52 56.0015 302.153 56.4837 302.673 57.0666C303.192 57.6496 303.592 58.3333 303.865 59.1142C304.138 59.8879 304.276 60.7659 304.276 61.734ZM299.153 62.0866C299.153 61.2518 299.004 60.5644 298.706 60.021C298.408 59.4777 298.041 59.0818 297.608 58.8227C297.175 58.5636 296.717 58.4017 296.241 58.3333C295.761 58.2649 295.27 58.2326 294.761 58.2326H292.674V66.3257H294.87C295.652 66.3257 296.306 66.2214 296.834 66.0126C297.361 65.8039 297.793 65.5124 298.128 65.1382C298.462 64.7639 298.717 64.3141 298.891 63.7923C299.066 63.2669 299.153 62.6984 299.153 62.0866Z" fill="white"/>
<path d="M138.638 7.1353H126.146V34.308H118.547V0.916992H138.638V7.1353Z" fill="#FFC700"/>
<path d="M166.466 33.1212C164.005 34.3015 160.787 34.8917 156.821 34.8917C151.644 34.8917 147.575 33.3875 144.612 30.3755C141.649 27.3635 140.165 23.3511 140.165 18.3383C140.165 12.998 141.831 8.66894 145.165 5.34387C148.499 2.0224 152.822 0.359863 158.141 0.359863C161.435 0.359863 164.209 0.770099 166.47 1.59417V8.83447C164.212 7.49941 161.638 6.83367 158.755 6.83367C155.588 6.83367 153.029 7.81968 151.087 9.79169C149.142 11.7637 148.171 14.4338 148.171 17.8021C148.171 21.03 149.088 23.603 150.924 25.521C152.76 27.439 155.228 28.3963 158.333 28.3963C161.296 28.3963 164.012 27.6837 166.474 26.2551V33.1212H166.466Z" fill="#FFC700"/>
<path d="M206.365 43.4124H199.686V34.308H172.349V0.916992H179.948V27.881H193.92V0.916992H201.544V27.881H206.365V43.4124Z" fill="#FFC700"/>
<path d="M139.282 0H135.773V8.03199H139.282V0Z" fill="#E2A700"/>
<path d="M168.223 0H164.714V9.27349H168.223V0Z" fill="#E2A700"/>
<path d="M171.251 0.00151229V3.47412L181.061 3.47412V0.00151229L171.251 0.00151229Z" fill="#E2A700"/>
<path d="M192.787 0.00296617V3.47559L202.597 3.47559V0.00296617L192.787 0.00296617Z" fill="#E2A700"/>
<path d="M198.146 40.3355V43.8081H207.955V40.3355H198.146Z" fill="#E2A700"/>
<path d="M168.223 25.395H164.714V34.6685H168.223V25.395Z" fill="#E2A700"/>
<path d="M127.375 35.6445V32.1719H117.202V35.6445H127.375Z" fill="#E2A700"/>
<path d="M324 108H0V15.0962H104.262V22.2933H7.2715V100.803H316.729V22.2933H218.625V15.0962H324V108Z" fill="#0095E9"/>
<path d="M108.098 13.415H101.877V23.7969H108.098V13.415Z" fill="#028AC6"/>
<path d="M219.676 13.415H213.455V23.7969H219.676V13.415Z" fill="#028AC6"/>
</svg>
