<svg width="204" height="68" viewBox="0 0 204 68" fill="none" xmlns="http://www.w3.org/2000/svg">
<path d="M21.6121 35.5747C21.6121 35.8058 21.603 36.0029 21.5824 36.1615C21.5618 36.3201 21.5343 36.447 21.4954 36.5444C21.4565 36.6419 21.4084 36.7099 21.3489 36.7529C21.2894 36.796 21.2207 36.8163 21.1428 36.8163H16.1135V48.9336C16.1135 49.0107 16.0883 49.0786 16.038 49.1375C15.9876 49.1965 15.9029 49.244 15.7862 49.2826C15.6694 49.3211 15.5115 49.3505 15.3169 49.3687C15.1223 49.3868 14.8705 49.3981 14.566 49.3981C14.2684 49.3981 14.0212 49.389 13.8221 49.3687C13.6229 49.3483 13.4649 49.3211 13.3482 49.2826C13.2314 49.244 13.1467 49.1965 13.0964 49.1375C13.046 49.0786 13.0208 49.0129 13.0208 48.9336V35.2734C13.0208 34.9494 13.1055 34.7069 13.2727 34.5483C13.4398 34.3897 13.6618 34.3104 13.9342 34.3104H21.1451C21.3008 34.3104 21.4175 34.4078 21.4977 34.6004C21.5732 34.793 21.6121 35.117 21.6121 35.5747Z" fill="black"/>
<path d="M35.7432 48.9314C35.7432 49.0084 35.718 49.0764 35.6677 49.1353C35.6173 49.1942 35.5326 49.2418 35.4159 49.2803C35.2991 49.3188 35.1412 49.3483 34.942 49.3664C34.7429 49.3845 34.4933 49.3958 34.198 49.3958C33.9027 49.3958 33.6532 49.3868 33.454 49.3664C33.2549 49.346 33.0992 49.3188 32.9848 49.2803C32.8703 49.2418 32.7925 49.1942 32.7444 49.1353C32.6963 49.0764 32.6734 49.0107 32.6734 48.9314V41.0171C32.6734 40.7157 32.678 40.4189 32.6849 40.1289C32.6917 39.8389 32.7032 39.5806 32.7192 39.3563H32.6963C32.6345 39.465 32.559 39.5896 32.4743 39.7324C32.3873 39.8751 32.2957 40.0269 32.1996 40.1855C32.1011 40.3441 31.9981 40.5073 31.8882 40.6727C31.7784 40.8403 31.6685 40.9989 31.5609 41.1553L26.2843 48.9427C26.2225 49.0288 26.1584 49.1013 26.0921 49.1625C26.0257 49.2236 25.9387 49.2735 25.8334 49.3075C25.7281 49.3415 25.5999 49.3664 25.4465 49.3777C25.2931 49.389 25.0963 49.3958 24.8536 49.3958C24.5491 49.3958 24.3019 49.3868 24.1142 49.3664C23.9265 49.346 23.78 49.3188 23.6747 49.2803C23.5694 49.2418 23.4961 49.1919 23.4572 49.1285C23.4183 49.0673 23.3977 48.9925 23.3977 48.9087V34.7024C23.3977 34.6254 23.4229 34.5574 23.4732 34.4985C23.5236 34.4396 23.6106 34.392 23.7319 34.3535C23.8532 34.3149 24.0112 34.2855 24.2058 34.2674C24.4003 34.2492 24.6476 34.2379 24.9452 34.2379C25.2496 34.2379 25.4992 34.247 25.696 34.2674C25.8906 34.2878 26.0486 34.3149 26.1653 34.3535C26.2821 34.392 26.3645 34.4396 26.4125 34.4985C26.4606 34.5574 26.4835 34.6254 26.4835 34.7024V42.6643C26.4835 42.9112 26.4789 43.1741 26.4721 43.4528C26.4629 43.7314 26.4515 44.0011 26.4377 44.2639H26.4606C26.5934 44.0328 26.7605 43.7541 26.9642 43.4278C27.168 43.1038 27.3786 42.7866 27.5983 42.4762L32.8749 34.6888C32.9298 34.6118 32.9893 34.5438 33.0512 34.4849C33.113 34.426 33.1977 34.3784 33.303 34.3399C33.4083 34.3013 33.5387 34.2742 33.6967 34.2583C33.8524 34.2424 34.0515 34.2356 34.2942 34.2356C34.5918 34.2356 34.8321 34.2447 35.0153 34.2651C35.1984 34.2855 35.3449 34.3127 35.4548 34.3512C35.5647 34.3897 35.6402 34.4373 35.6837 34.4962C35.7272 34.5551 35.7478 34.6254 35.7478 34.7114V48.9314H35.7432Z" fill="black"/>
<path d="M53.038 52.867C53.038 52.944 53.0173 53.0097 52.9784 53.0641C52.9395 53.1185 52.8686 53.1638 52.7678 53.1978C52.6671 53.2318 52.5298 53.259 52.3581 53.2794C52.1864 53.2998 51.9643 53.3088 51.6896 53.3088C51.4241 53.3088 51.2066 53.2998 51.0395 53.2794C50.8724 53.259 50.735 53.2318 50.6297 53.1978C50.5244 53.1638 50.4489 53.1185 50.4077 53.0641C50.3642 53.0097 50.3436 52.944 50.3436 52.867V49.3279H40.2483V52.867C40.2483 52.944 40.2277 53.0097 40.1842 53.0641C40.1407 53.1185 40.0675 53.1638 39.9622 53.1978C39.8569 53.2318 39.7172 53.259 39.5455 53.2794C39.3739 53.2975 39.1541 53.3088 38.8886 53.3088C38.623 53.3088 38.4032 53.2998 38.2316 53.2794C38.0599 53.259 37.9202 53.2318 37.8149 53.1978C37.7096 53.1638 37.6364 53.1185 37.5975 53.0641C37.5585 53.0097 37.5379 52.944 37.5379 52.867V47.47C37.5219 47.2456 37.5631 47.0848 37.6616 46.9873C37.76 46.8899 37.9065 46.8423 38.1011 46.8423H38.8038C38.9916 46.5795 39.1701 46.3076 39.3372 46.0289C39.5043 45.7502 39.6669 45.4194 39.8248 45.0365C39.9805 44.6536 40.1362 44.1959 40.2872 43.668C40.4406 43.1378 40.5894 42.4898 40.7382 41.724C40.887 40.9582 41.0381 40.0519 41.1892 39.0028C41.3425 37.9538 41.5005 36.7212 41.663 35.3074C41.7111 34.9584 41.8004 34.7047 41.9332 34.5461C42.0659 34.3875 42.2697 34.3082 42.5421 34.3082H50.2932C50.5679 34.3082 50.7808 34.3875 50.9388 34.5461C51.0944 34.7047 51.1723 34.9471 51.1723 35.2711V46.8423H52.4611C52.6717 46.8423 52.8205 46.899 52.9075 47.01C52.9945 47.1233 53.0357 47.2796 53.0357 47.479V52.867H53.038ZM48.1025 36.7688H44.5611C44.4192 37.9447 44.2818 38.9801 44.1445 39.8729C44.0071 40.7656 43.8698 41.5495 43.7347 42.2225C43.5974 42.8954 43.46 43.4754 43.3181 43.9626C43.1762 44.4497 43.0342 44.8711 42.89 45.2269C42.7458 45.5826 42.5947 45.8885 42.4391 46.1445C42.2834 46.4005 42.1232 46.6316 41.9583 46.8401H48.1025V36.7688Z" fill="black"/>
<path d="M65.5964 38.8691C65.5964 39.712 65.4636 40.4597 65.198 41.11C64.9325 41.7602 64.5456 42.3085 64.0374 42.7526C63.5292 43.1967 62.9066 43.5366 62.1672 43.7677C61.4278 43.9988 60.5579 44.1166 59.5575 44.1166H58.2916V48.911C58.2916 48.988 58.2664 49.0582 58.2161 49.1194C58.1657 49.1806 58.081 49.2327 57.9642 49.2712C57.8475 49.3097 57.6895 49.3415 57.495 49.3641C57.3004 49.3868 57.0486 49.3981 56.7441 49.3981C56.4465 49.3981 56.1993 49.3868 56.0001 49.3641C55.801 49.3415 55.643 49.3097 55.5263 49.2712C55.4095 49.2327 55.3271 49.1829 55.279 49.1194C55.231 49.0582 55.2081 48.988 55.2081 48.911V35.4002C55.2081 35.0377 55.3042 34.7636 55.4942 34.5823C55.6865 34.401 55.9383 34.3104 56.2497 34.3104H59.8253C60.1847 34.3104 60.5281 34.324 60.8509 34.3512C61.176 34.3784 61.5651 34.4373 62.0184 34.5257C62.4716 34.614 62.9318 34.7794 63.3965 35.0196C63.8612 35.2598 64.2595 35.5634 64.5868 35.9304C64.9142 36.2975 65.166 36.728 65.3377 37.2196C65.5117 37.7068 65.5964 38.2596 65.5964 38.8691ZM62.3732 39.0912C62.3732 38.5655 62.2793 38.1327 62.0916 37.7906C61.9039 37.4485 61.6727 37.1993 61.4003 37.0361C61.1279 36.873 60.8394 36.771 60.5396 36.728C60.2374 36.6849 59.9284 36.6645 59.6079 36.6645H58.2939V41.7602H59.6766C60.1687 41.7602 60.5808 41.6945 60.9127 41.5631C61.2446 41.4317 61.517 41.2482 61.7277 41.0125C61.9383 40.7769 62.0985 40.4937 62.2084 40.1651C62.3183 39.8343 62.3732 39.4763 62.3732 39.0912Z" fill="black"/>
<path d="M81.6389 41.6447C81.6389 42.8909 81.4833 44.0056 81.1696 44.9867C80.856 45.97 80.3913 46.8038 79.7732 47.4881C79.1552 48.1723 78.3906 48.6957 77.4818 49.056C76.5707 49.4162 75.5177 49.5952 74.3227 49.5952C73.1415 49.5952 72.1114 49.4434 71.2323 49.1376C70.3533 48.8317 69.6207 48.3649 69.0347 47.7396C68.4487 47.112 68.0092 46.3167 67.7162 45.3492C67.4231 44.3817 67.2766 43.2375 67.2766 41.9143C67.2766 40.6999 67.4323 39.6078 67.7459 38.6358C68.0595 37.6637 68.5242 36.839 69.1423 36.157C69.7604 35.475 70.525 34.9539 71.4338 34.5891C72.3449 34.2266 73.4025 34.0431 74.6066 34.0431C75.7557 34.0431 76.7698 34.1949 77.6489 34.4962C78.5279 34.7976 79.2628 35.262 79.8534 35.8897C80.444 36.5173 80.8881 37.308 81.1903 38.2642C81.4878 39.2158 81.6389 40.3441 81.6389 41.6447ZM78.402 41.8056C78.402 41.0171 78.3402 40.2988 78.2143 39.6531C78.0884 39.0073 77.8755 38.4545 77.5756 37.9923C77.2758 37.5323 76.8729 37.1766 76.3738 36.9251C75.8725 36.6736 75.2475 36.5467 74.4967 36.5467C73.739 36.5467 73.1049 36.6872 72.5967 36.9704C72.0885 37.2536 71.6787 37.6298 71.3651 38.101C71.0515 38.5723 70.8317 39.1252 70.7035 39.755C70.5753 40.3849 70.509 41.0533 70.509 41.758C70.509 42.5782 70.5708 43.3146 70.6967 43.9694C70.8226 44.6242 71.0332 45.1815 71.3308 45.646C71.6284 46.1105 72.0267 46.464 72.5257 46.7087C73.027 46.9534 73.6543 47.0734 74.4143 47.0734C75.1743 47.0734 75.8061 46.9352 76.3143 46.6565C76.8225 46.3779 77.2323 45.9995 77.5459 45.5191C77.8595 45.0388 78.0793 44.4814 78.2075 43.8425C78.3356 43.2035 78.402 42.5261 78.402 41.8056Z" fill="black"/>
<path d="M94.7239 47.0534C94.7239 47.246 94.717 47.4114 94.7055 47.5474C94.6941 47.6833 94.6758 47.7989 94.6529 47.8963C94.63 47.9937 94.5979 48.0753 94.559 48.1455C94.5201 48.2158 94.4583 48.2951 94.3713 48.3834C94.2843 48.4718 94.1195 48.5874 93.8723 48.7256C93.625 48.866 93.3252 48.9975 92.9703 49.1266C92.6155 49.2535 92.208 49.36 91.7502 49.4461C91.2924 49.5322 90.7979 49.573 90.2668 49.573C89.2275 49.573 88.289 49.4144 87.4534 49.0971C86.6156 48.7799 85.9059 48.3064 85.3199 47.6743C84.7339 47.0444 84.2829 46.2559 83.9716 45.3133C83.658 44.3685 83.5023 43.2696 83.5023 42.0166C83.5023 40.741 83.674 39.6059 84.0174 38.6157C84.3607 37.6256 84.8415 36.7941 85.4596 36.1211C86.0776 35.4482 86.817 34.9384 87.6823 34.5895C88.5454 34.2406 89.4977 34.0684 90.5369 34.0684C90.9582 34.0684 91.3656 34.1023 91.7571 34.1726C92.1485 34.2428 92.5102 34.3335 92.8421 34.4445C93.1741 34.5578 93.474 34.6869 93.7395 34.8342C94.005 34.9815 94.1905 35.1061 94.2958 35.2126C94.4011 35.3191 94.4743 35.4029 94.5132 35.4731C94.5522 35.5434 94.5842 35.6317 94.6071 35.7405C94.63 35.8492 94.6483 35.9761 94.6598 36.1234C94.6712 36.2707 94.6781 36.4519 94.6781 36.6695C94.6781 36.9006 94.6689 37.0977 94.6552 37.2608C94.6391 37.4239 94.6117 37.5554 94.5728 37.6551C94.5339 37.7548 94.4858 37.8295 94.4308 37.8748C94.3759 37.9224 94.3141 37.9451 94.2431 37.9451C94.1264 37.9451 93.9776 37.8771 93.7967 37.7412C93.6159 37.6052 93.3847 37.4557 93.0985 37.288C92.8124 37.1226 92.4736 36.9708 92.0776 36.8349C91.6838 36.6989 91.2123 36.6309 90.6651 36.6309C90.0631 36.6309 89.5251 36.7533 89.0536 36.9957C88.5797 37.2404 88.1791 37.5871 87.8449 38.0402C87.5129 38.4934 87.2611 39.0394 87.0894 39.6829C86.9178 40.3241 86.8308 41.0492 86.8308 41.8535C86.8308 42.7349 86.9223 43.5007 87.1055 44.1465C87.2886 44.7922 87.5519 45.3247 87.8907 45.7416C88.2317 46.1585 88.6415 46.4711 89.1222 46.6751C89.603 46.8812 90.1432 46.9832 90.7453 46.9832C91.2924 46.9832 91.7662 46.9198 92.1645 46.7929C92.5629 46.666 92.904 46.5232 93.1901 46.3692C93.4762 46.2151 93.7097 46.0746 93.8929 45.9523C94.076 45.8277 94.2179 45.7665 94.321 45.7665C94.3988 45.7665 94.4629 45.7823 94.5087 45.8141C94.5567 45.8458 94.5957 45.907 94.6254 45.9999C94.6575 46.0928 94.6804 46.2219 94.6964 46.3896C94.717 46.5504 94.7239 46.7747 94.7239 47.0534Z" fill="black"/>
<path d="M109.37 48.1905C109.464 48.4691 109.523 48.6889 109.546 48.8521C109.569 49.0152 109.539 49.1375 109.452 49.2168C109.365 49.2961 109.214 49.3483 108.995 49.3686C108.775 49.3868 108.475 49.3981 108.093 49.3981C107.694 49.3981 107.383 49.3913 107.161 49.38C106.939 49.3686 106.767 49.346 106.65 49.3097C106.534 49.2758 106.451 49.2259 106.403 49.1647C106.355 49.1036 106.316 49.022 106.286 48.92L105.266 45.902H99.5655L98.604 48.8385C98.572 48.9472 98.5308 49.0378 98.4804 49.1104C98.43 49.1829 98.3476 49.2418 98.2332 49.2848C98.1187 49.3279 97.9585 49.3573 97.7524 49.3709C97.5441 49.3868 97.274 49.3936 96.9375 49.3936C96.5781 49.3936 96.2965 49.3822 96.0928 49.3596C95.889 49.3369 95.7494 49.2803 95.6716 49.1919C95.5937 49.1036 95.5663 48.9767 95.5892 48.8135C95.6121 48.6504 95.6716 48.4352 95.7654 48.1633L100.445 34.8383C100.493 34.7069 100.545 34.6004 100.609 34.5189C100.671 34.4373 100.772 34.3761 100.909 34.3331C101.047 34.29 101.237 34.2628 101.477 34.2515C101.72 34.2402 102.04 34.2334 102.438 34.2334C102.899 34.2334 103.267 34.2402 103.542 34.2515C103.816 34.2628 104.029 34.29 104.18 34.3331C104.332 34.3761 104.441 34.4396 104.508 34.5234C104.574 34.6095 104.631 34.725 104.677 34.8723L109.37 48.1905ZM102.404 37.1743H102.393L100.248 43.557H104.551L102.404 37.1743Z" fill="black"/>
<path d="M123.336 48.9087C123.336 48.9858 123.311 49.056 123.261 49.1172C123.21 49.1783 123.126 49.2305 123.009 49.269C122.892 49.3075 122.734 49.3392 122.54 49.3619C122.345 49.3845 122.098 49.3959 121.8 49.3959C121.496 49.3959 121.244 49.3845 121.045 49.3619C120.846 49.3392 120.69 49.3075 120.576 49.269C120.461 49.2305 120.381 49.1806 120.328 49.1172C120.276 49.0537 120.253 48.9858 120.253 48.9087V42.8387H114.578V48.9087C114.578 48.9858 114.555 49.056 114.507 49.1172C114.461 49.1783 114.379 49.2305 114.26 49.269C114.143 49.3075 113.985 49.3392 113.79 49.3619C113.596 49.3845 113.344 49.3959 113.04 49.3959C112.742 49.3959 112.495 49.3845 112.296 49.3619C112.096 49.3392 111.938 49.3075 111.822 49.269C111.705 49.2305 111.62 49.1806 111.57 49.1172C111.52 49.056 111.494 48.9858 111.494 48.9087V34.7251C111.494 34.648 111.52 34.5778 111.57 34.5166C111.62 34.4554 111.705 34.4033 111.822 34.3648C111.938 34.3263 112.096 34.2946 112.296 34.2719C112.495 34.2492 112.742 34.2379 113.04 34.2379C113.344 34.2379 113.594 34.2492 113.79 34.2719C113.985 34.2946 114.143 34.3263 114.26 34.3648C114.376 34.4033 114.459 34.4532 114.507 34.5166C114.555 34.5778 114.578 34.648 114.578 34.7251V40.2376H120.253V34.7251C120.253 34.648 120.278 34.5778 120.328 34.5166C120.379 34.4554 120.461 34.4033 120.576 34.3648C120.688 34.3263 120.846 34.2946 121.045 34.2719C121.244 34.2492 121.496 34.2379 121.8 34.2379C122.098 34.2379 122.343 34.2492 122.54 34.2719C122.734 34.2946 122.892 34.3263 123.009 34.3648C123.126 34.4033 123.21 34.4532 123.261 34.5166C123.311 34.5778 123.336 34.648 123.336 34.7251V48.9087Z" fill="black"/>
<path d="M140.267 52.867C140.267 52.944 140.249 53.0097 140.207 53.0641C140.169 53.1185 140.1 53.1638 140.001 53.1978C139.903 53.2318 139.768 53.259 139.592 53.2793C139.415 53.2975 139.196 53.3088 138.93 53.3088C138.665 53.3088 138.445 53.2997 138.273 53.2793C138.101 53.259 137.962 53.2318 137.857 53.1978C137.751 53.1638 137.676 53.1185 137.634 53.0641C137.591 53.0097 137.57 52.944 137.57 52.867V49.3279H127.532C127.258 49.3279 127.042 49.2486 126.882 49.09C126.722 48.9314 126.642 48.6889 126.642 48.3649V34.7046C126.642 34.6276 126.667 34.5596 126.717 34.5007C126.768 34.4418 126.852 34.3942 126.969 34.3557C127.086 34.3172 127.244 34.2877 127.443 34.2696C127.642 34.2515 127.889 34.2402 128.187 34.2402C128.491 34.2402 128.741 34.2492 128.938 34.2696C129.132 34.29 129.29 34.3172 129.407 34.3557C129.524 34.3942 129.606 34.4418 129.654 34.5007C129.702 34.5596 129.725 34.6276 129.725 34.7046V46.7993H135.332V34.7046C135.332 34.6276 135.357 34.5596 135.407 34.5007C135.457 34.4418 135.542 34.3942 135.659 34.3557C135.776 34.3172 135.934 34.2877 136.135 34.2696C136.334 34.2515 136.581 34.2402 136.879 34.2402C137.183 34.2402 137.433 34.2492 137.63 34.2696C137.824 34.29 137.982 34.3172 138.099 34.3557C138.216 34.3942 138.298 34.4418 138.346 34.5007C138.394 34.5596 138.417 34.6276 138.417 34.7046V46.7993H139.754C139.949 46.7993 140.084 46.8446 140.159 46.933C140.233 47.0213 140.272 47.1867 140.272 47.4269V52.867H140.267Z" fill="black"/>
<path d="M151.431 48.1316C151.431 48.3559 151.422 48.5439 151.402 48.6935C151.381 48.843 151.354 48.9654 151.315 49.0583C151.276 49.1511 151.228 49.2191 151.168 49.2622C151.109 49.3052 151.044 49.3256 150.976 49.3256H143.353C143.094 49.3256 142.879 49.2508 142.703 49.099C142.526 48.9472 142.439 48.7025 142.439 48.3627V35.2711C142.439 34.9312 142.526 34.6843 142.703 34.5347C142.879 34.3829 143.096 34.3082 143.353 34.3082H150.928C150.999 34.3082 151.06 34.3263 151.115 34.3671C151.17 34.4056 151.216 34.4736 151.257 34.571C151.296 34.6684 151.326 34.7908 151.344 34.9426C151.363 35.0944 151.374 35.2847 151.374 35.5181C151.374 35.7356 151.365 35.9191 151.344 36.0686C151.324 36.2205 151.296 36.3405 151.257 36.4334C151.218 36.5263 151.17 36.5943 151.115 36.6374C151.06 36.6804 150.999 36.7008 150.928 36.7008H145.509V40.3691H150.094C150.165 40.3691 150.23 40.3895 150.287 40.4325C150.346 40.4756 150.394 40.5413 150.433 40.6296C150.472 40.718 150.502 40.8381 150.52 40.9899C150.539 41.1417 150.55 41.3252 150.55 41.5405C150.55 41.7648 150.541 41.9506 150.52 42.0978C150.5 42.2451 150.472 42.3629 150.433 42.4513C150.394 42.5397 150.346 42.6031 150.287 42.6439C150.227 42.6824 150.163 42.7028 150.094 42.7028H145.509V46.9398H150.974C151.044 46.9398 151.109 46.9602 151.166 47.0032C151.225 47.0463 151.273 47.1142 151.312 47.2071C151.351 47.3 151.381 47.4224 151.399 47.5719C151.418 47.7215 151.431 47.9072 151.431 48.1316Z" fill="black"/>
<path d="M165.995 48.9087C165.995 48.9858 165.97 49.056 165.92 49.1172C165.869 49.1783 165.784 49.2305 165.668 49.269C165.551 49.3075 165.393 49.3392 165.198 49.3619C165.004 49.3845 164.757 49.3959 164.459 49.3959C164.155 49.3959 163.903 49.3845 163.704 49.3619C163.504 49.3392 163.349 49.3075 163.234 49.269C163.12 49.2305 163.04 49.1806 162.987 49.1172C162.934 49.0537 162.912 48.9858 162.912 48.9087V42.8387H157.237V48.9087C157.237 48.9858 157.214 49.056 157.166 49.1172C157.12 49.1783 157.038 49.2305 156.918 49.269C156.802 49.3075 156.644 49.3392 156.449 49.3619C156.255 49.3845 156.003 49.3959 155.698 49.3959C155.401 49.3959 155.154 49.3845 154.954 49.3619C154.755 49.3392 154.597 49.3075 154.481 49.269C154.364 49.2305 154.279 49.1806 154.229 49.1172C154.178 49.056 154.153 48.9858 154.153 48.9087V34.7251C154.153 34.648 154.178 34.5778 154.229 34.5166C154.279 34.4554 154.364 34.4033 154.481 34.3648C154.597 34.3263 154.755 34.2946 154.954 34.2719C155.154 34.2492 155.401 34.2379 155.698 34.2379C156.003 34.2379 156.252 34.2492 156.449 34.2719C156.644 34.2946 156.802 34.3263 156.918 34.3648C157.035 34.4033 157.118 34.4532 157.166 34.5166C157.214 34.5778 157.237 34.648 157.237 34.7251V40.2376H162.912V34.7251C162.912 34.648 162.937 34.5778 162.987 34.5166C163.037 34.4554 163.12 34.4033 163.234 34.3648C163.346 34.3263 163.504 34.2946 163.704 34.2719C163.903 34.2492 164.155 34.2379 164.459 34.2379C164.757 34.2379 165.002 34.2492 165.198 34.2719C165.393 34.2946 165.551 34.3263 165.668 34.3648C165.784 34.4033 165.869 34.4532 165.92 34.5166C165.97 34.5778 165.995 34.648 165.995 34.7251V48.9087Z" fill="black"/>
<path d="M179.398 35.5611C179.398 35.7854 179.389 35.978 179.368 36.1366C179.348 36.2952 179.32 36.4221 179.281 36.5195C179.243 36.617 179.194 36.6872 179.135 36.7348C179.075 36.7824 179.011 36.805 178.94 36.805H175.14V48.911C175.14 48.988 175.115 49.0583 175.065 49.1194C175.014 49.1806 174.93 49.2327 174.813 49.2712C174.696 49.3098 174.538 49.3415 174.339 49.3641C174.14 49.3868 173.89 49.3981 173.595 49.3981C173.298 49.3981 173.05 49.3868 172.851 49.3641C172.652 49.3415 172.494 49.3098 172.377 49.2712C172.261 49.2327 172.176 49.1829 172.125 49.1194C172.075 49.0583 172.05 48.988 172.05 48.911V36.805H168.25C168.172 36.805 168.106 36.7824 168.051 36.7348C167.996 36.6872 167.95 36.617 167.911 36.5195C167.872 36.4221 167.842 36.2952 167.824 36.1366C167.804 35.978 167.794 35.7877 167.794 35.5611C167.794 35.3277 167.804 35.1306 167.824 34.9698C167.842 34.8066 167.872 34.6775 167.911 34.58C167.95 34.4826 167.998 34.4146 168.051 34.3716C168.106 34.3285 168.172 34.3082 168.25 34.3082H178.945C179.016 34.3082 179.08 34.3285 179.14 34.3716C179.199 34.4146 179.247 34.4849 179.286 34.58C179.325 34.6775 179.355 34.8066 179.373 34.9698C179.389 35.1329 179.398 35.33 179.398 35.5611Z" fill="black"/>
<path d="M191.581 38.8691C191.581 39.712 191.448 40.4597 191.183 41.11C190.917 41.7602 190.53 42.3085 190.022 42.7526C189.514 43.1967 188.891 43.5366 188.152 43.7677C187.413 43.9988 186.543 44.1166 185.542 44.1166H184.276V48.911C184.276 48.988 184.251 49.0582 184.201 49.1194C184.151 49.1806 184.066 49.2327 183.949 49.2712C183.832 49.3097 183.674 49.3415 183.48 49.3641C183.285 49.3868 183.033 49.3981 182.729 49.3981C182.431 49.3981 182.184 49.3868 181.985 49.3641C181.786 49.3415 181.628 49.3097 181.511 49.2712C181.394 49.2327 181.312 49.1829 181.264 49.1194C181.216 49.0582 181.193 48.988 181.193 48.911V35.4002C181.193 35.0377 181.289 34.7636 181.479 34.5823C181.671 34.401 181.923 34.3104 182.234 34.3104H185.81C186.17 34.3104 186.513 34.324 186.836 34.3512C187.161 34.3784 187.55 34.4373 188.003 34.5257C188.456 34.614 188.917 34.7794 189.381 35.0196C189.846 35.2598 190.244 35.5634 190.572 35.9304C190.899 36.2975 191.151 36.728 191.323 37.2196C191.494 37.7068 191.581 38.2596 191.581 38.8691ZM188.356 39.0912C188.356 38.5655 188.262 38.1327 188.074 37.7906C187.886 37.4485 187.655 37.1993 187.383 37.0361C187.11 36.873 186.822 36.771 186.522 36.728C186.22 36.6849 185.911 36.6645 185.59 36.6645H184.276V41.7602H185.659C186.151 41.7602 186.563 41.6945 186.895 41.5631C187.227 41.4317 187.5 41.2482 187.71 41.0125C187.921 40.7769 188.081 40.4937 188.191 40.1651C188.301 39.8343 188.356 39.4763 188.356 39.0912Z" fill="black"/>
<path d="M87.2909 4.49301H79.4253V21.6018H74.6409V0.577774H87.2909V4.49301Z" fill="#FFC700"/>
<path d="M104.812 20.8541C103.262 21.5972 101.237 21.9688 98.7391 21.9688C95.4793 21.9688 92.9177 21.0217 91.052 19.1253C89.1863 17.2288 88.2523 14.7025 88.2523 11.5463C88.2523 8.18393 89.3008 5.45822 91.4 3.36466C93.4991 1.27336 96.221 0.226578 99.57 0.226578C101.644 0.226578 103.391 0.484874 104.815 1.00373V5.56244C103.393 4.72185 101.772 4.30268 99.9569 4.30268C97.963 4.30268 96.3515 4.9235 95.129 6.16514C93.9043 7.40677 93.2931 9.08797 93.2931 11.2087C93.2931 13.2411 93.87 14.8611 95.026 16.0688C96.1821 17.2764 97.7364 17.8791 99.6914 17.8791C101.557 17.8791 103.267 17.4305 104.817 16.531V20.8541H104.812Z" fill="#FFC700"/>
<path d="M129.934 27.3341H125.728V21.6018H108.516V0.577774H113.301V17.5551H122.098V0.577774H126.898V17.5551H129.934V27.3341Z" fill="#FFC700"/>
<path d="M87.6961 0H85.487V5.05718H87.6961V0Z" fill="#E2A700"/>
<path d="M105.918 0H103.709V5.83887H105.918V0Z" fill="#E2A700"/>
<path d="M107.825 0.00114942V2.18761L114.001 2.18761V0.00114942L107.825 0.00114942Z" fill="#E2A700"/>
<path d="M121.385 0.00207329V2.18854L127.561 2.18854V0.00207329L121.385 0.00207329Z" fill="#E2A700"/>
<path d="M124.758 25.3964V27.5829H130.935V25.3964H124.758Z" fill="#E2A700"/>
<path d="M105.918 15.9895H103.709V21.8283H105.918V15.9895Z" fill="#E2A700"/>
<path d="M80.1991 22.4428V20.2563H73.794V22.4428H80.1991Z" fill="#E2A700"/>
<path d="M204 68H0V9.50487H65.6467V14.0364H4.57835V63.4685H199.422V14.0364H137.653V9.50487H204V68Z" fill="#0095E9"/>
<path d="M68.0618 8.44675H64.145V14.9835H68.0618V8.44675Z" fill="#028AC6"/>
<path d="M138.314 8.44675H134.398V14.9835H138.314V8.44675Z" fill="#028AC6"/>
</svg>
